<?xml version="1.0" encoding="UTF-8" standalone="no"?>
<!-- Created with Inkscape (http://www.inkscape.org/) -->

<svg
   version="1.1"
   id="svg815"
   width="800"
   height="800"
   viewBox="0 0 800 800"
   sodipodi:docname="logo_chèvre_Grisette_v4_transparent.svg"
   inkscape:version="1.3 (0e150ed6c4, 2023-07-21)"
   inkscape:export-filename="logo_La_chèvre_Grisette_transparent.png"
   inkscape:export-xdpi="249"
   inkscape:export-ydpi="249"
   xmlns:inkscape="http://www.inkscape.org/namespaces/inkscape"
   xmlns:sodipodi="http://sodipodi.sourceforge.net/DTD/sodipodi-0.dtd"
   xmlns="http://www.w3.org/2000/svg"
   xmlns:svg="http://www.w3.org/2000/svg"
   xmlns:rdf="http://www.w3.org/1999/02/22-rdf-syntax-ns#"
   xmlns:cc="http://creativecommons.org/ns#"
   xmlns:dc="http://purl.org/dc/elements/1.1/">
  <metadata
     id="metadata821">
    <rdf:RDF>
      <cc:Work
         rdf:about="">
        <dc:format>image/svg+xml</dc:format>
        <dc:type
           rdf:resource="http://purl.org/dc/dcmitype/StillImage" />
        <cc:license
           rdf:resource="http://creativecommons.org/licenses/by-nc-nd/4.0/" />
      </cc:Work>
      <cc:License
         rdf:about="http://creativecommons.org/licenses/by-nc-nd/4.0/">
        <cc:permits
           rdf:resource="http://creativecommons.org/ns#Reproduction" />
        <cc:permits
           rdf:resource="http://creativecommons.org/ns#Distribution" />
        <cc:requires
           rdf:resource="http://creativecommons.org/ns#Notice" />
        <cc:requires
           rdf:resource="http://creativecommons.org/ns#Attribution" />
        <cc:prohibits
           rdf:resource="http://creativecommons.org/ns#CommercialUse" />
      </cc:License>
    </rdf:RDF>
  </metadata>
  <defs
     id="defs819">
    <filter
       style="color-interpolation-filters:sRGB"
       inkscape:label="Feather"
       id="filter63"
       x="-0.0012155632"
       y="-0.01345206"
       width="1.0024311"
       height="1.0269041">
      <feGaussianBlur
         stdDeviation="0.5"
         result="blur"
         id="feGaussianBlur61" />
      <feComposite
         in="SourceGraphic"
         in2="blur"
         operator="atop"
         result="composite1"
         id="feComposite61" />
      <feComposite
         in2="composite1"
         operator="in"
         result="composite2"
         id="feComposite62" />
      <feComposite
         in2="composite2"
         operator="in"
         result="composite3"
         id="feComposite63" />
    </filter>
    <filter
       style="color-interpolation-filters:sRGB;"
       inkscape:label="Feather"
       id="filter86"
       x="-0.0028287275"
       y="-0.031304176"
       width="1.0056574"
       height="1.062648">
      <feGaussianBlur
         stdDeviation="0.6"
         result="blur"
         id="feGaussianBlur84" />
      <feComposite
         in="SourceGraphic"
         in2="blur"
         operator="atop"
         result="composite1"
         id="feComposite84" />
      <feComposite
         in2="composite1"
         operator="in"
         result="composite2"
         id="feComposite85" />
      <feComposite
         in2="composite2"
         operator="in"
         result="composite3"
         id="feComposite86" />
    </filter>
  </defs>
  <sodipodi:namedview
     pagecolor="#ffffff"
     bordercolor="#666666"
     borderopacity="1"
     objecttolerance="10"
     gridtolerance="10"
     guidetolerance="10"
     inkscape:pageopacity="0"
     inkscape:pageshadow="2"
     inkscape:window-width="2560"
     inkscape:window-height="1371"
     id="namedview817"
     showgrid="false"
     units="px"
     inkscape:zoom="1"
     inkscape:cx="267.99999"
     inkscape:cy="371.99999"
     inkscape:window-x="1920"
     inkscape:window-y="28"
     inkscape:window-maximized="0"
     inkscape:current-layer="layer2"
     inkscape:showpageshadow="2"
     inkscape:pagecheckerboard="true"
     inkscape:deskcolor="#d1d1d1" />
  <g
     inkscape:groupmode="layer"
     id="layer1"
     inkscape:label="fond"
     style="display:inline"
     transform="translate(-173.31184,-45.969391)">
    <path
       style="fill:#ffffff;stroke:#000000;stroke-width:0.707107"
       d="m 545.72614,345.96234 c -5.62333,0.48903 -11.58544,0.89983 -16.71644,3.38914 -1.94256,3.37084 1.68625,7.028 2.42023,10.40253 1.67831,3.2634 3.1364,6.53055 0.43443,9.64782 -4.18091,9.46882 -14.40487,15.05092 -24.58991,14.54679 -6.94965,-0.23926 -14.36693,-0.62263 -20.51853,-3.89876 -0.49901,-2.5908 -2.64928,-6.31553 -5.34976,-3.22552 -2.55777,1.13597 -4.19772,4.93811 -0.67922,6.14466 26.17954,15.74048 48.81105,38.85511 59.8202,67.65343 6.45194,15.8584 8.6411,33.78781 5.86263,50.51947 -2.19254,9.26502 -7.31652,20.42814 -17.89726,21.91478 -12.49784,1.32134 -22.66749,-8.42885 -30.18462,-17.19153 -3.38312,-3.33335 -5.24104,-8.53031 -9.53213,-10.77924 -4.42519,0.39699 -1.35131,5.77632 -0.98022,8.3193 10.77342,40.0365 26.30065,79.99963 53.65277,111.77147 12.11836,13.12551 25.21804,26.02963 41.19173,34.36235 5.17034,2.68674 11.54609,1.51141 15.50481,-2.74948 26.73352,-21.02652 40.44751,-53.93304 48.50648,-86.07112 6.90733,-28.30523 10.84041,-57.54059 11.13589,-86.60154 -3.15798,-4.17673 -5.0249,3.30177 -6.03486,5.68706 -5.99477,13.69862 -12.30382,28.44582 -24.4182,37.89971 -6.00287,5.04837 -15.64236,4.31717 -20.43428,-2.05503 -11.15783,-13.82387 -13.08321,-32.49471 -12.93646,-49.5541 -0.50056,-16.30376 1.19028,-31.97082 5.78201,-47.6045 1.51362,-4.16453 1.14959,-8.50974 -0.30746,-12.60453 -1.05468,-3.97408 2.00923,-7.47719 1.75257,-11.28747 -2.2275,-2.84371 -6.33501,0.49784 -9.162,-1.65728 -6.85792,-1.56053 -8.77288,-9.06039 -9.4465,-15.09507 -2.02168,-3.93111 -7.40449,-4.29389 -9.9796,-7.90662 -2.49234,-2.41886 -4.6512,-5.36385 -3.14907,-8.96571 0.0951,-4.16972 2.04681,-8.75246 0.7471,-12.73325 -3.11855,-2.40947 -7.91785,-1.21879 -11.67387,-1.94216 -4.26873,-0.22709 -8.54474,-0.41374 -12.82046,-0.3356 z m 60.48388,260.49013 c 2.7883,0.92392 -1.095,4.18282 -1.81473,5.57676 -3.15905,3.6918 -6.78684,7.78662 -11.17146,9.66056 -2.48951,-1.40559 1.63335,-3.62969 2.48316,-4.49675 4.12409,-2.94945 6.56725,-7.74134 10.50303,-10.74057 z m -52.34525,3.62393 c 5.89647,2.72868 10.63397,7.63818 16.74822,10.07902 2.73204,0.60047 0.1846,3.89814 -1.38935,2.21248 -5.66112,-3.1419 -12.13254,-6.1734 -15.88091,-11.59407 0.0172,-0.24397 0.25404,-0.68722 0.52204,-0.69743 z"
       id="path1" />
    <path
       style="display:inline;fill:#ffffff;stroke:#000000;stroke-width:0.707107"
       d="m 517.68494,341.18937 c -9.14586,6.74491 -20.23751,10.68668 -31.56016,9.075 -2.82379,-0.71906 -5.0604,2.02749 -3.43808,4.59481 2.24598,7.52955 3.98561,15.36 6.74212,22.64504 6.60078,3.27706 14.7487,3.76375 22.16561,3.00277 8.02558,-0.85065 16.27824,-6.56321 18.18866,-14.63932 -1.23029,-7.64061 -5.85965,-14.35453 -8.48548,-21.57846 -0.62447,-1.58685 -1.4292,-3.83973 -3.61267,-3.09984 z"
       id="path2" />
    <path
       style="display:inline;fill:#ffffff;stroke:#000000;stroke-width:0.125"
       d="m 608.63244,340.75295 c -4.55546,1.99381 -9.19765,3.58602 -14.19272,3.82159 -4.99738,0.25585 -10.036,-0.79291 -14.71634,-2.69325 -1.26124,-0.4033 -2.56247,-1.45636 -3.92175,-0.88566 -1.48065,0.65972 -1.28843,2.49156 -1.60881,3.81289 -0.98625,6.43793 -1.98814,12.88503 -2.60275,19.36844 0.12178,1.60081 1.52712,2.65988 2.46142,3.83093 2.36633,2.52966 5.31577,4.63656 8.6581,5.62567 1.64483,0.21229 2.42161,-1.47772 3.25757,-2.56323 2.94845,-3.85185 8.03903,-5.47479 12.75537,-5.08618 1.27389,-0.031 2.58946,0.54267 3.82018,0.14775 1.37465,-0.49021 1.55951,-2.34464 0.66224,-3.36936 -1.99486,-3.21744 -3.432,-7.26199 -2.15747,-11.01106 0.93986,-2.49782 3.2065,-4.31267 5.68018,-5.18115 1.2014,-0.5584 2.62111,-0.48229 3.76067,-1.13217 1.05847,-0.85208 0.93336,-2.43721 0.58503,-3.61539 -0.45123,-0.90528 -1.47268,-1.33673 -2.44092,-1.06982 z"
       id="path28"
       inkscape:label="path3" />
    <path
       style="fill:#ffffff;stroke:#000000;stroke-width:0.707107"
       d="m 609.45414,325.45486 c -8.42509,2.59868 -17.52003,2.92788 -26.17262,1.12419 -3.77426,-2.92907 -6.73863,0.39578 -6.34877,4.41113 -0.66215,3.05399 -2.46653,7.81499 1.78987,9.06257 9.62349,4.6131 21.09023,4.12907 30.47245,-0.8536 3.73198,-1.9889 1.59813,-7.35344 2.42181,-10.88504 0.19089,-1.312 -0.62171,-3.03112 -2.16274,-2.85925 z"
       id="path4" />
    <path
       style="fill:#ffffff;stroke:#000000;stroke-width:0.707107"
       d="m 510.76026,327.47399 c -6.10887,3.89758 -13.49204,6.01801 -20.53924,6.00626 -4.10582,0.60995 -9.01187,-0.56688 -12.56219,1.92107 -1.1524,3.69987 1.41617,7.7029 2.82843,11.11759 4.11259,3.87063 10.57887,2.07402 15.69031,2.1669 7.87147,-0.7938 15.88795,-4.24097 21.43372,-9.83257 0.50797,-3.53252 -2.75266,-6.93937 -4.25185,-10.20949 -0.52654,-1.0196 -1.50922,-1.27876 -2.59918,-1.16976 z"
       id="path5" />
    <path
       style="fill:#ffffff;stroke:#000000;stroke-width:0.707107"
       d="m 501.33586,309.43448 c -8.34921,4.91185 -17.92459,7.90959 -27.66556,7.25751 -4.30185,0.41081 -1.80365,5.3442 -0.95806,7.7491 0.90936,3.49739 2.2951,8.4363 6.92926,7.90319 10.44513,0.6742 22.20336,0.0918 30.65196,-6.8397 1.91259,-3.67613 -2.82745,-7.21103 -3.87986,-10.74869 -1.42953,-1.77368 -1.95577,-6.26647 -5.07774,-5.32141 z"
       id="path6" />
    <path
       style="fill:#ffffff;stroke:#000000;stroke-width:0.707107"
       d="m 490.71821,290.77211 c -5.15359,5.76429 -12.86361,8.75508 -20.56134,7.9729 -2.4351,-0.23634 -6.85882,0.41932 -5.45384,3.88771 1.70667,3.95114 2.53198,9.11886 6.21895,11.69212 9.92296,2.08243 21.21074,0.028 29.17782,-6.42749 1.91285,-3.58677 -2.06664,-7.24115 -3.29302,-10.51135 -1.82761,-1.98225 -2.50904,-7.73164 -6.08857,-6.61389 z"
       id="path7" />
    <path
       style="fill:#ffffff;stroke:#000000;stroke-width:0.707107"
       d="m 480.77314,274.63156 c -4.84948,5.56167 -11.90401,8.20416 -19.11951,8.71454 -3.71226,-0.22335 -3.82917,3.95817 -2.1517,6.27281 1.58268,3.28463 3.10342,8.30131 7.71326,7.68288 7.19826,0.0637 15.43858,-0.0208 20.57101,-5.91787 2.93925,-1.83 3.15184,-5.39121 0.87974,-7.8569 -2.09309,-3.05892 -3.44163,-6.87991 -6.36396,-9.18272 -0.50961,0.0958 -1.01923,0.19151 -1.52884,0.28726 z"
       id="path8" />
    <path
       style="fill:#ffffff;stroke:#000000;stroke-width:0.707107"
       d="m 472.45773,260.87475 c -2.85152,1.5621 -5.28848,4.16114 -8.66897,4.95527 -3.65067,1.99089 -8.87682,0.63825 -11.7446,3.76341 0.0782,3.93917 2.18102,7.93302 4.34346,11.17284 4.20164,2.51311 9.68573,0.4301 14.05237,-0.77202 4.26346,-1.63828 11.09066,-5.08341 9.24348,-10.66875 -1.93987,-2.70364 -3.41467,-8.15878 -7.22574,-8.45075 z"
       id="path9" />
    <path
       style="fill:#ffffff;stroke:#000000;stroke-width:0.707107"
       d="m 463.48769,247.40795 c -3.16822,1.40326 -5.76625,4.31014 -9.42681,4.99232 -2.97751,1.60781 -8.60656,-0.0846 -9.31566,3.98462 2.17898,3.19121 2.72428,8.56322 6.43577,10.12738 7.48019,-0.38469 17.27403,-1.43462 20.79751,-9.104 -2.18774,-3.39222 -4.11277,-7.7946 -7.72155,-9.92298 -0.25072,-0.0638 -0.51097,-0.0901 -0.76926,-0.0773 z"
       id="path10" />
    <path
       style="fill:#ffffff;stroke:#000000;stroke-width:0.707107"
       d="m 452.58692,232.17892 c -4.41253,2.32283 -9.02597,5.24597 -14.32444,4.6901 -4.39358,1.48375 0.35603,6.00535 1.18772,8.57782 1.49256,3.39777 3.85728,7.76719 8.33475,6.70784 5.72719,-0.21861 11.84381,-2.67569 15.0053,-7.57101 -2.25322,-4.2705 -5.18378,-8.70777 -8.63305,-12.16583 -0.4817,-0.2412 -1.039,-0.32252 -1.57028,-0.23892 z"
       id="path11" />
    <path
       style="fill:#ffffff;stroke:#000000;stroke-width:0.707107"
       d="m 441.89055,218.15693 c -3.90736,1.09281 -7.16295,3.92243 -11.31095,4.47052 -3.87213,2.24809 0.20568,6.58722 1.5247,9.14681 2.32644,4.98319 9.02322,3.43405 13.32455,2.61437 3.39784,-0.62889 7.21611,-4.14641 4.5589,-7.63593 -2.36617,-2.93212 -4.24947,-6.95506 -7.66769,-8.59162 l -0.28864,-0.01 z"
       id="path12" />
    <path
       style="fill:#ffffff;stroke:#000000;stroke-width:0.707107"
       d="m 428.13097,204.10181 c -1.93003,3.38872 -7.37019,2.73783 -8.73662,5.99467 1.28505,3.67907 3.90588,7.51112 6.92328,10.22873 4.16251,1.746 9.832,0.0177 12.73344,-3.36152 1.8785,-4.18349 -3.80601,-7.03905 -5.64854,-10.06594 -1.44525,-1.32645 -2.90236,-4.4568 -5.27156,-2.79594 z"
       id="path13" />
    <path
       style="fill:#ffffff;stroke:#000000;stroke-width:0.176777"
       d="m 419.19201,194.8193 c -1.5488,1.70714 -3.48712,3.26087 -5.81775,3.56385 -1.71566,0.35743 -2.19227,2.66047 -0.94154,3.79863 1.34228,1.56339 2.34874,3.46137 3.96435,4.7557 2.21551,0.34692 4.51769,-0.11392 6.66849,-0.69398 1.90394,-0.64547 3.85406,-1.8344 4.7722,-3.68 0.61476,-1.92253 -1.45322,-3.10986 -2.52068,-4.35204 -1.43682,-1.2519 -2.61811,-2.8508 -4.2886,-3.79197 -0.7014,-0.10685 -1.23867,0.0118 -1.83647,0.39981 z"
       id="path14" />
    <path
       style="fill:#ffffff;stroke:#000000;stroke-width:0.176777"
       d="m 407.59069,184.11119 c -1.58843,0.94144 -2.56622,2.71034 -4.3476,3.40641 -1.32192,0.35493 -2.70767,1.60586 -2.0442,3.06326 1.1599,1.69918 3.01369,2.80882 4.44351,4.28378 1.40026,1.18538 2.65336,3.12063 4.75186,2.85145 2.62254,-0.20506 5.54624,-0.6453 7.27996,-2.85812 1.20832,-0.96708 1.18194,-2.91098 -0.11241,-3.79043 -2.7032,-2.38448 -5.5088,-4.70025 -8.44332,-6.77249 -0.47975,-0.34464 -0.98221,-0.22039 -1.5278,-0.18386 z"
       id="path15" />
    <path
       style="fill:#ffffff;stroke:#000000;stroke-width:0.0441942"
       d="m 370.9078,171.78862 c -0.92891,-0.0458 -1.83127,0.59488 -2.06228,1.50148 -0.25378,0.94412 0.28039,2.00467 1.19014,2.36248 1.54731,0.49357 3.13343,0.85927 4.70105,1.28336 2.9326,0.77902 5.88808,1.4705 8.81522,2.26954 2.19203,0.66958 4.26053,1.69464 6.23956,2.84041 1.86717,1.09317 3.71584,2.3839 5.44252,3.7414 0.64376,0.47787 1.22406,1.04031 1.88767,1.48966 0.88881,0.54042 1.9573,0.28583 2.92286,0.16952 1.91226,-0.27294 3.83161,-1.03459 5.12884,-2.51494 0.56036,-0.57217 1.01013,-1.35895 0.84101,-2.18546 -0.10459,-0.75751 -0.71,-1.30305 -1.34348,-1.66048 -5.36936,-3.48595 -11.13829,-6.49207 -17.36221,-8.10979 -2.00265,-0.505 -4.06275,-0.73328 -6.11521,-0.92411 -2.76025,-0.17404 -5.52792,-0.18087 -8.29222,-0.24315 -0.66445,-0.01 -1.32893,-0.022 -1.99347,-0.0199 z"
       id="path16" />
    <path
       style="fill:#ffffff;stroke:#000000;stroke-width:0.0883883"
       d="m 583.60452,305.76463 c -1.13036,0.0284 -1.92233,1.05782 -2.04905,2.1157 -1.08309,4.61874 -2.1156,9.25243 -3.04984,13.90258 -0.15804,1.18238 0.7899,2.14352 1.83612,2.50512 3.51089,1.5683 7.37095,2.2129 11.18786,2.43638 3.61,0.0704 7.24841,0.003 10.7965,-0.73611 3.11601,-0.62613 6.26307,-1.48014 8.98868,-3.16351 1.09598,-0.74166 0.915,-2.18455 1.02396,-3.33201 0.20071,-3.48595 0.44777,-6.96518 0.68841,-10.41815 0.0227,-1.32226 -1.48531,-2.27398 -2.69384,-1.79233 -4.78442,1.75276 -9.97983,2.46275 -15.04191,1.75335 -3.43833,-0.46205 -6.83132,-1.47187 -10.03841,-2.86153 -0.52115,-0.22246 -1.07135,-0.437 -1.64848,-0.40949 z"
       id="path17" />
    <path
       style="fill:#ffffff;stroke:#000000;stroke-width:0.0883883"
       d="m 588.06485,285.40821 c -1.00169,0.32379 -1.40656,1.36188 -1.59008,2.30631 -1.21923,4.899 -2.5456,9.77445 -3.62794,14.70568 -0.1757,1.1034 0.66501,2.08284 1.68233,2.39242 5.48577,2.51945 11.57962,4.02437 17.63901,3.39003 3.54765,-0.34537 7.0151,-1.3732 10.25953,-2.82045 1.00753,-0.47066 1.0971,-1.71231 1.11792,-2.6527 0.34699,-4.22825 0.76873,-8.50865 1.16762,-12.68711 0.0641,-1.34213 -1.46473,-2.34538 -2.69256,-1.84977 -2.08532,0.80936 -4.28555,1.39886 -6.52157,1.55784 -2.31026,0.0235 -4.65612,0.13864 -6.91299,-0.46012 -3.20392,-0.66898 -6.16948,-2.12275 -8.9743,-3.7675 -0.47407,-0.23092 -1.04401,-0.25389 -1.54697,-0.11463 z"
       id="path18" />
    <path
       style="fill:#ffffff;stroke:#000000;stroke-width:0.0883883"
       d="m 593.06466,266.75343 c -1.07832,0.44413 -1.26105,1.66668 -1.54039,2.65962 -1.13271,4.09888 -2.3922,8.16584 -3.40262,12.29683 -0.26861,1.1051 0.51386,2.10923 1.45271,2.59382 3.64464,2.43834 7.85694,4.15267 12.25029,4.51549 2.64332,0.12801 5.32326,-0.0414 7.85982,-0.84463 1.74818,-0.55231 3.53962,-1.16031 5.02787,-2.25368 0.8659,-0.8777 0.61713,-2.23075 0.84399,-3.35121 0.34819,-3.22804 0.80711,-6.44566 1.12304,-9.67592 0.11423,-1.34654 -1.23753,-2.51655 -2.55347,-2.1964 -4.92269,0.86019 -10.18746,0.9178 -14.84778,-1.108 -1.6023,-0.65131 -3.04832,-1.61409 -4.50155,-2.53052 -0.52453,-0.30855 -1.14905,-0.29395 -1.71191,-0.1054 z"
       id="path19" />
    <path
       style="fill:#ffffff;stroke:#000000;stroke-width:0.0883883"
       d="m 597.85006,250.96852 c -1.17766,0.59603 -1.22762,2.04283 -1.65917,3.13728 -0.92811,2.98416 -1.90685,5.95545 -2.74833,8.96484 -0.20177,1.07553 0.56006,1.97288 1.38452,2.54549 3.11012,2.51874 6.97365,4.03547 10.95168,4.40717 3.41584,0.216 6.86948,-0.10931 10.19778,-0.89103 1.03803,-0.24858 1.51131,-1.34127 1.53557,-2.32446 0.47037,-3.51477 1.0492,-6.99639 1.51318,-10.51458 0.0509,-1.25631 -1.18744,-2.2882 -2.41359,-2.05728 -3.10604,0.31932 -6.34667,0.4641 -9.34482,-0.1274 -2.72742,-0.47781 -5.26899,-1.66261 -7.6194,-3.08901 -0.56567,-0.29962 -1.21166,-0.28832 -1.79742,-0.051 z"
       id="path20" />
    <path
       style="fill:#ffffff;stroke:#000000;stroke-width:0.353553"
       d="m 603.92089,235.20691 c -2.54955,0.89612 -2.32673,4.22037 -3.43353,6.30817 -0.5237,2.50943 -2.67105,5.37871 -1.17854,7.88368 4.0429,2.97532 9.21977,4.39491 14.23449,3.95539 2.23458,-0.13707 5.883,0.21093 6.20048,-2.84363 0.58302,-3.2652 1.75742,-6.56922 1.6278,-9.87637 -0.7556,-2.56747 -4.02714,-1.29166 -6.01062,-1.70872 -3.87464,-0.19692 -7.2874,-2.10577 -10.72261,-3.67226 -0.23843,0.023 -0.47915,-0.0752 -0.71747,-0.0463 z"
       id="path21" />
    <path
       style="fill:#ffffff;stroke:#000000;stroke-width:0.353553"
       d="m 609.25734,218.49184 c -1.80857,4.1579 -3.65264,8.4052 -4.89865,12.78179 -0.38894,2.98981 3.09645,3.95105 5.18453,5.04711 3.6028,1.35363 7.77023,2.39368 11.5188,1.1235 2.43226,-1.78451 1.88741,-5.31583 2.82843,-7.88866 0.2474,-2.54104 1.92467,-5.28121 0.98126,-7.70153 -1.90345,-1.83427 -4.99311,-0.3349 -7.3687,-1.23122 -2.59806,-0.32255 -4.57045,-2.37414 -7.10491,-2.74142 -0.38025,0.20348 -0.76051,0.40696 -1.14076,0.61043 z"
       id="path22" />
    <path
       style="fill:#ffffff;stroke:#000000;stroke-width:0.353553"
       d="m 617.78198,201.70496 c -2.61169,0.68617 -2.73005,4.07614 -4.01374,6.04177 -0.88569,2.57976 -2.75797,4.96303 -2.88676,7.72126 1.05589,2.34328 3.99485,2.95293 6.17268,3.88219 2.93439,0.815 6.2972,0.91834 9.02183,-0.52826 1.33931,-3.56496 2.31757,-7.36121 3.05354,-11.1176 0.32445,-2.49409 -2.32144,-3.20287 -4.23574,-3.43817 -2.51989,-0.43232 -4.5346,-2.57425 -7.11181,-2.56119 z"
       id="path23" />
    <path
       style="fill:#ffffff;stroke:#000000;stroke-width:0.0883883"
       d="m 626.1787,184.51878 c -1.2264,0.39267 -1.62219,1.73894 -2.26322,2.71984 -1.92832,3.47181 -3.81965,6.97252 -5.58146,10.52833 -0.47744,1.03616 0.18054,2.16199 1.07348,2.72043 2.58735,1.95219 5.7606,3.27712 9.04478,3.16218 0.99883,0.12398 2.1561,-0.24398 2.52566,-1.264 1.22901,-3.67491 2.43198,-7.28764 3.85911,-10.88594 0.40506,-0.878 0.58775,-2.00681 -0.12202,-2.783 -0.75018,-0.85457 -2.00263,-0.77665 -2.93938,-1.32004 -1.43567,-0.63096 -2.72651,-1.54234 -3.91261,-2.55407 -0.48069,-0.37327 -1.10195,-0.43876 -1.68434,-0.32373 z"
       id="path24" />
    <path
       style="fill:#ffffff;stroke:#000000;stroke-width:0.0883883"
       d="m 633.1966,173.55258 c -1.21341,0.38611 -1.66238,1.69981 -2.39809,2.61952 -1.11246,1.69718 -2.31035,3.34985 -3.2824,5.13201 -0.44229,0.99929 0.0937,2.10284 0.91339,2.72111 1.80993,1.66418 4.05755,2.99467 6.53452,3.26692 1.27395,0.0482 2.19015,-1.02429 2.63918,-2.10623 0.89325,-1.89466 1.91864,-3.72176 2.92014,-5.55922 0.49519,-1.0992 -0.185,-2.44651 -1.32724,-2.77657 -1.68795,-0.62819 -3.02346,-1.88688 -4.39417,-2.99978 -0.45412,-0.35059 -1.05803,-0.39316 -1.60533,-0.29776 z"
       id="path25" />
    <path
       style="fill:#ffffff;stroke:#000000;stroke-width:0.0883883"
       d="m 643.51421,161.30286 c -1.06203,0.47882 -1.7257,1.50578 -2.57597,2.26694 -2.08206,2.18264 -4.12063,4.42854 -5.9114,6.85536 -0.68127,0.96491 -0.21475,2.30271 0.71736,2.92043 1.55939,1.42709 3.38347,2.81746 5.54695,3.05355 1.12907,0.12788 1.90469,-0.85795 2.38523,-1.74509 1.71642,-2.78643 3.58398,-5.47649 5.56426,-8.08086 0.75337,-1.00285 0.31216,-2.55748 -0.82991,-3.0501 -1.19896,-0.54832 -2.27307,-1.32203 -3.35407,-2.05836 -0.45611,-0.29084 -1.03207,-0.27686 -1.54245,-0.16187 z"
       id="path26" />
    <path
       style="fill:#ffffff;stroke:#000000;stroke-width:0.0883883"
       d="m 665.35753,150.35945 c -1.74902,0.28213 -3.4181,0.93776 -5.1213,1.41501 -4.00994,1.23009 -8.05614,2.62223 -11.48734,5.1037 -0.82797,0.65884 -1.86497,1.13863 -2.46796,2.02466 -0.65565,1.04477 -0.0431,2.41432 0.99993,2.93548 1.28886,0.71038 2.64831,1.4217 4.12719,1.5971 1.26084,-0.0902 1.98424,-1.26822 2.96481,-1.9095 2.69281,-2.00691 5.71001,-3.48136 8.55671,-5.25125 1.30591,-0.82713 2.70801,-1.52636 3.91899,-2.49067 0.933,-0.8943 0.68697,-2.64347 -0.50354,-3.17792 -0.30393,-0.1837 -0.63476,-0.25366 -0.98749,-0.24661 z"
       id="path27" />
  </g>
  <g
     inkscape:groupmode="layer"
     id="layer2"
     inkscape:label="texte"
     style="display:inline"
     transform="translate(-173.31184,-45.969391)">
    <g
       id="g84"
       transform="matrix(0.79565976,0,0,0.84537466,146.85483,176.48316)"
       style="display:inline;fill:#000000;stroke:#000000;filter:url(#filter86)"
       inkscape:label="ombre">
      <path
         sodipodi:nodetypes="ccccccc"
         inkscape:connector-curvature="0"
         id="path68"
         d="m 46.096216,586.55031 15.706631,-4e-5 v 68.92151 h 36.570574 v 13.59677 H 45.861799 Z"
         style="fill:#000000;fill-opacity:1;stroke:#000000;stroke-width:2.70502;stroke-linecap:butt;stroke-linejoin:round;stroke-miterlimit:4;stroke-dasharray:none;stroke-opacity:1" />
      <path
         id="path69"
         style="fill:#000000;fill-opacity:1;stroke:#000000;stroke-width:2.70502;stroke-linecap:butt;stroke-linejoin:round;stroke-miterlimit:4;stroke-dasharray:none;stroke-opacity:1"
         inkscape:label="path830"
         d="m 154.93969,621.8049 v 7.62652 c -67.820439,-33.85857 -45.06041,73.84691 0.33139,34.31356 v 5.47094 h 11.27209 l -0.16692,-47.41102 z m -14.80935,11.05279 a 12.170215,13.219246 0 0 1 12.17052,13.21992 12.170215,13.219246 0 0 1 -12.17052,13.2176 12.170215,13.219246 0 0 1 -12.16807,-13.2176 12.170215,13.219246 0 0 1 12.16807,-13.21992 z" />
      <path
         sodipodi:nodetypes="ccccc"
         inkscape:connector-curvature="0"
         id="path70"
         d="m 258.48699,635.42828 4.17452,-7.23049 c -63.31816,-23.90411 -51.13915,65.80422 0.74842,37.94052 l -7.03277,-6.09513 c -24.77596,10.02398 -33.82639,-32.83148 2.10983,-24.6149 z"
         style="fill:#000000;fill-opacity:1;stroke:#000000;stroke-width:2.70502;stroke-linecap:round;stroke-linejoin:round;stroke-miterlimit:4;stroke-dasharray:none;stroke-opacity:1" />
      <path
         sodipodi:nodetypes="ccccccccccc"
         inkscape:connector-curvature="0"
         id="path71"
         d="m 276.77618,584.1774 h 14.42152 v 49.89521 c 9.76124,-16.92696 33.89861,-16.96813 35.65958,-2.81455 l -0.35165,38.95131 h -14.75307 v -32.48993 c -0.19964,-11.69013 -21.17548,0.84577 -20.38908,5.47024 l -0.16574,26.19086 h -14.08999 z"
         style="fill:#000000;fill-opacity:1;stroke:#000000;stroke-width:2.70502;stroke-linecap:butt;stroke-linejoin:round;stroke-miterlimit:4;stroke-dasharray:none;stroke-opacity:1" />
      <path
         sodipodi:nodetypes="ccccc"
         inkscape:connector-curvature="0"
         id="path72"
         d="m 353.028,598.93048 h 14.25577 l 8.46111,14.01583 -12.10794,0.23994 z"
         style="fill:#000000;fill-opacity:1;stroke:#000000;stroke-width:2.70502;stroke-linecap:butt;stroke-linejoin:round;stroke-miterlimit:4;stroke-dasharray:none;stroke-opacity:1" />
      <path
         id="path73"
         style="fill:#000000;fill-opacity:1;stroke:#000000;stroke-width:2.70502;stroke-linecap:butt;stroke-linejoin:round;stroke-miterlimit:4;stroke-dasharray:none;stroke-opacity:1"
         d="m 366.90509,623.12874 c -9.60898,-0.27047 -18.82535,4.23155 -23.11122,13.78595 -9.17003,21.29789 16.58478,44.14413 41.72294,29.64893 l -6.79467,-6.79709 c -6.35702,3.04281 -16.26472,1.62552 -21.71695,-4.80788 13.00117,-4.00037 37.464,-12.9288 37.464,-12.9288 -5.28113,-12.15732 -16.67392,-18.59458 -27.5641,-18.90111 z m 1.72322,8.45132 c 4.3238,0.0247 8.40267,2.15091 10.003,7.71662 l -20.51413,7.03276 c -8.22945,-6.0447 1.65764,-14.80002 10.51113,-14.74938 z" />
      <path
         id="path74"
         style="fill:#000000;fill-opacity:1;stroke:#000000;stroke-width:2.70502;stroke-linecap:butt;stroke-linejoin:round;stroke-miterlimit:4;stroke-dasharray:none;stroke-opacity:1"
         d="m 535.60845,622.71056 c -9.60899,-0.27046 -18.82781,4.23155 -23.11368,13.78596 -9.17003,21.29788 16.58723,44.1418 41.72539,29.64662 l -6.79713,-6.7971 c -6.357,3.04282 -16.26226,1.62783 -21.71448,-4.80556 13.00115,-4.00039 37.46154,-12.93112 37.46154,-12.93112 -5.28113,-12.15732 -16.67146,-18.59227 -27.56164,-18.8988 z m 1.72321,8.45132 c 4.3238,0.0247 8.40021,2.1486 10.00055,7.71432 l -20.51167,7.03275 c -8.22946,-6.04469 1.65763,-14.7977 10.51112,-14.74707 z" />
      <path
         id="path75"
         style="fill:#000000;fill-opacity:1;stroke:#000000;stroke-width:2.70502;stroke-linecap:butt;stroke-linejoin:round;stroke-miterlimit:4;stroke-dasharray:none;stroke-opacity:1"
         d="m 852.17945,622.10987 c -9.60898,-0.27047 -18.8278,4.23155 -23.11367,13.78595 -9.17004,21.29788 16.58722,44.14412 41.72539,29.64893 l -6.79467,-6.7971 c -6.35702,3.04282 -16.26472,1.62553 -21.71695,-4.80787 13.00117,-4.00038 37.464,-12.92881 37.464,-12.92881 -5.28113,-12.15731 -16.67391,-18.59457 -27.5641,-18.9011 z m 1.72322,8.45363 c 4.3238,0.0247 8.40267,2.1486 10.003,7.71431 l -20.51413,7.03276 c -8.22945,-6.0447 1.65764,-14.79771 10.51113,-14.74707 z" />
      <path
         id="path76"
         style="fill:#000000;fill-opacity:1;stroke:#000000;stroke-width:2.70502;stroke-linecap:butt;stroke-linejoin:round;stroke-miterlimit:4;stroke-dasharray:none;stroke-opacity:1"
         d="m 1005.4966,622.10987 c -9.60899,-0.27047 -18.82781,4.23155 -23.11368,13.78595 -9.17003,21.29788 16.58724,44.14412 41.72538,29.64893 l -6.7971,-6.7971 c -6.357,3.04282 -16.2623,1.62553 -21.7145,-4.80787 13.0011,-4.00038 37.4615,-12.92881 37.4615,-12.92881 -5.2811,-12.15731 -16.6714,-18.59457 -27.5616,-18.9011 z m 1.7232,8.45363 c 4.3238,0.0247 8.4002,2.1486 10.0006,7.71431 l -20.51171,7.03276 c -8.22946,-6.0447 1.65762,-14.79771 10.51111,-14.74707 z" />
      <path
         sodipodi:nodetypes="cccccccc"
         inkscape:connector-curvature="0"
         id="path77"
         d="m 401.95623,622.4176 h 17.34759 l 12.1902,23.20825 9.84593,-23.20825 h 17.58201 l -26.78326,46.88539 c -1.47365,1.9844 -2.21642,2.07895 -3.75085,0 z"
         style="fill:#000000;fill-opacity:1;stroke:#000000;stroke-width:2.70502;stroke-linecap:butt;stroke-linejoin:round;stroke-miterlimit:4;stroke-dasharray:none;stroke-opacity:1" />
      <path
         sodipodi:nodetypes="ccccccccc"
         inkscape:connector-curvature="0"
         id="path78"
         d="m 469.11954,622.06595 h 14.30004 v 11.95579 c 5.8366,-7.65804 10.16065,-11.01788 19.22301,-12.77628 v 12.42463 c -7.43667,-0.22019 -13.02571,3.96376 -19.10579,11.36969 v 24.96646 h -14.41726 z"
         style="fill:#000000;fill-opacity:1;stroke:#000000;stroke-width:2.70502;stroke-linecap:butt;stroke-linejoin:round;stroke-miterlimit:4;stroke-dasharray:none;stroke-opacity:1" />
      <path
         sodipodi:nodetypes="ccccccccc"
         inkscape:connector-curvature="0"
         id="path79"
         d="m 702.04804,625.25592 h 12.79681 v 10.69902 c 5.22307,-6.85304 9.09254,-9.85971 17.20228,-11.43328 v 11.11857 c -6.65492,-0.19693 -11.65645,3.54713 -17.09739,10.17454 v 22.34199 h -12.9017 z"
         style="display:inline;fill:#000000;fill-opacity:1;stroke:#000000;stroke-width:2.70502;stroke-linecap:butt;stroke-linejoin:round;stroke-miterlimit:4;stroke-dasharray:none;stroke-opacity:1" />
      <path
         sodipodi:nodetypes="ccsccccccsccc"
         inkscape:connector-curvature="0"
         id="path80"
         d="m 679.0894,594.15008 c -100.07781,-32.19393 -83.18781,116.43134 3.96459,67.79952 0.29285,-0.20531 0.51855,-0.45998 0.69759,-0.74872 0.3699,-0.59662 0.54047,-1.33914 0.6922,-2.0955 l -0.21777,-30.83447 h -31.82682 v 15.08458 h 15.41611 v 9.78014 c -19.16611,5.99655 -32.90832,-0.10767 -38.06834,-11.2986 -4.02353,-8.72622 -3.32624,-24.35784 5.08117,-32.13175 9.27089,-8.40284 24.84886,-7.30712 36.96553,-3.48112 z"
         style="fill:#000000;fill-opacity:1;stroke:#000000;stroke-width:2.70502;stroke-linecap:butt;stroke-linejoin:round;stroke-miterlimit:4;stroke-dasharray:none;stroke-opacity:1" />
      <g
         transform="matrix(2.7050222,0,0,2.7050222,-959.82951,-780.15841)"
         id="g81"
         style="display:inline;fill:#000000;fill-opacity:1;stroke:#000000;stroke-width:1;stroke-miterlimit:4;stroke-dasharray:none;stroke-opacity:1">
        <rect
           style="fill:#000000;fill-opacity:1;stroke:#000000;stroke-width:1;stroke-linecap:round;stroke-linejoin:round;stroke-miterlimit:4;stroke-dasharray:none;stroke-dashoffset:0;stroke-opacity:1"
           id="rect80"
           width="5.5464683"
           height="17.332714"
           x="630.99744"
           y="518.68146" />
        <path
           style="fill:#000000;fill-opacity:1;stroke:#000000;stroke-width:1;stroke-linecap:butt;stroke-linejoin:round;stroke-miterlimit:4;stroke-dasharray:none;stroke-opacity:1"
           d="m 631.77742,514.13162 c -2.2164,-1.67576 0.086,-4.33941 2.3411,-4.56763 2.92774,0.0182 3.61058,3.75954 1.86211,4.5243 -1.27641,0.5863 -3.14725,0.6244 -4.20321,0.0433 z"
           id="path81"
           inkscape:connector-curvature="0"
           sodipodi:nodetypes="ccccc" />
      </g>
      <path
         sodipodi:nodetypes="ccccccccccccccc"
         inkscape:connector-curvature="0"
         id="path82"
         d="m 807.55519,632.24921 4.80717,-5.30449 c -3.78866,-6.62475 -12.19617,-7.75706 -17.07377,-7.62516 -5.27742,0.1242 -10.9863,2.75802 -13.59271,4.80717 -4.11415,2.83495 -6.41871,6.09409 -6.13333,11.272 0.51399,5.62882 3.15081,8.95257 7.29367,11.76931 5.20885,3.02162 10.83345,5.08197 16.41072,7.29365 4.63557,2.47058 4.27492,8.116 -1.49187,8.78554 -6.97609,0.3061 -11.1942,-3.30089 -15.74766,-7.29371 l -6.13333,7.45943 c 6.74512,9.61448 19.21367,11.13882 28.01428,9.28276 12.13171,-3.20767 14.11425,-23.85759 3.14958,-29.50615 -4.16003,-2.37667 -8.67065,-3.99907 -13.09541,-5.80176 -6.34217,-3.30542 -0.65413,-8.44632 1.49187,-9.11704 3.37766,-0.959 8.96304,0.833 12.10079,3.97845 z"
         style="fill:#000000;fill-opacity:1;stroke:#000000;stroke-width:2.70502;stroke-linecap:butt;stroke-linejoin:round;stroke-miterlimit:4;stroke-dasharray:none;stroke-opacity:1" />
      <path
         inkscape:connector-curvature="0"
         id="path83"
         d="m 899.05737,600.25659 h 14.5873 v 21.54942 h 10.60895 v 10.60898 h -10.60895 v 36.79979 h -14.5873 v -37.13132 h -8.9513 v -9.61439 h 8.61977 z"
         style="fill:#000000;fill-opacity:1;stroke:#000000;stroke-width:2.70502;stroke-linecap:butt;stroke-linejoin:round;stroke-miterlimit:4;stroke-dasharray:none;stroke-opacity:1" />
      <path
         inkscape:connector-curvature="0"
         id="path84"
         d="m 943.6481,600.91965 h 14.58728 v 21.54942 h 10.60897 v 10.60897 h -10.60897 v 36.7998 H 943.6481 v -37.13133 h -8.9513 v -9.61438 h 8.61977 z"
         style="display:inline;fill:#000000;fill-opacity:1;stroke:#000000;stroke-width:2.70502;stroke-linecap:butt;stroke-linejoin:round;stroke-miterlimit:4;stroke-dasharray:none;stroke-opacity:1" />
    </g>
    <g
       id="g933"
       transform="matrix(0.79565976,0,0,0.84537466,144.85483,174.48316)">
      <path
         sodipodi:nodetypes="ccccccc"
         inkscape:connector-curvature="0"
         id="path828"
         d="m 46.096216,586.55031 15.706631,-4e-5 v 68.92151 h 36.570574 v 13.59677 H 45.861799 Z"
         style="fill:#322c2c;fill-opacity:1;stroke:#322c2c;stroke-width:2.70502;stroke-linecap:butt;stroke-linejoin:round;stroke-miterlimit:4;stroke-dasharray:none;stroke-opacity:1" />
      <path
         id="path830"
         style="fill:#322c2c;fill-opacity:1;stroke:#322c2c;stroke-width:2.70502;stroke-linecap:butt;stroke-linejoin:round;stroke-miterlimit:4;stroke-dasharray:none;stroke-opacity:1"
         inkscape:label="path830"
         d="M 154.93969 621.8049 L 154.93969 629.43142 C 87.119251 595.57285 109.87928 703.27833 155.27108 663.74498 L 155.27108 669.21592 L 166.54317 669.21592 L 166.37625 621.8049 L 154.93969 621.8049 z M 140.13034 632.85769 A 12.170215 13.219246 0 0 1 152.30086 646.07761 A 12.170215 13.219246 0 0 1 140.13034 659.29521 A 12.170215 13.219246 0 0 1 127.96227 646.07761 A 12.170215 13.219246 0 0 1 140.13034 632.85769 z " />
      <path
         sodipodi:nodetypes="ccccc"
         inkscape:connector-curvature="0"
         id="path834"
         d="m 258.48699,635.42828 4.17452,-7.23049 c -63.31816,-23.90411 -51.13915,65.80422 0.74842,37.94052 l -7.03277,-6.09513 c -24.77596,10.02398 -33.82639,-32.83148 2.10983,-24.6149 z"
         style="fill:#322c2c;fill-opacity:1;stroke:#322c2c;stroke-width:2.70502;stroke-linecap:round;stroke-linejoin:round;stroke-miterlimit:4;stroke-dasharray:none;stroke-opacity:1" />
      <path
         sodipodi:nodetypes="ccccccccccc"
         inkscape:connector-curvature="0"
         id="path836"
         d="m 276.77618,584.1774 h 14.42152 v 49.89521 c 9.76124,-16.92696 33.89861,-16.96813 35.65958,-2.81455 l -0.35165,38.95131 h -14.75307 v -32.48993 c -0.19964,-11.69013 -21.17548,0.84577 -20.38908,5.47024 l -0.16574,26.19086 h -14.08999 z"
         style="fill:#322c2c;fill-opacity:1;stroke:#322c2c;stroke-width:2.70502;stroke-linecap:butt;stroke-linejoin:round;stroke-miterlimit:4;stroke-dasharray:none;stroke-opacity:1" />
      <path
         sodipodi:nodetypes="ccccc"
         inkscape:connector-curvature="0"
         id="path838"
         d="m 353.028,598.93048 h 14.25577 l 8.46111,14.01583 -12.10794,0.23994 z"
         style="fill:#322c2c;fill-opacity:1;stroke:#322c2c;stroke-width:2.70502;stroke-linecap:butt;stroke-linejoin:round;stroke-miterlimit:4;stroke-dasharray:none;stroke-opacity:1" />
      <path
         id="path840"
         style="fill:#322c2c;fill-opacity:1;stroke:#322c2c;stroke-width:2.70502;stroke-linecap:butt;stroke-linejoin:round;stroke-miterlimit:4;stroke-dasharray:none;stroke-opacity:1"
         d="M 366.90509 623.12874 C 357.29611 622.85827 348.07974 627.36029 343.79387 636.91469 C 334.62384 658.21258 360.37865 681.05882 385.51681 666.56362 L 378.72214 659.76653 C 372.36512 662.80934 362.45742 661.39205 357.00519 654.95865 C 370.00636 650.95828 394.46919 642.02985 394.46919 642.02985 C 389.18806 629.87253 377.79527 623.43527 366.90509 623.12874 z M 368.62831 631.58006 C 372.95211 631.60479 377.03098 633.73097 378.63131 639.29668 L 358.11718 646.32944 C 349.88773 640.28474 359.77482 631.52942 368.62831 631.58006 z " />
      <path
         id="path840-3"
         style="fill:#322c2c;fill-opacity:1;stroke:#322c2c;stroke-width:2.70502;stroke-linecap:butt;stroke-linejoin:round;stroke-miterlimit:4;stroke-dasharray:none;stroke-opacity:1"
         d="M 535.60845 622.71056 C 525.99946 622.4401 516.78064 626.94211 512.49477 636.49652 C 503.32474 657.7944 529.082 680.63832 554.22016 666.14314 L 547.42303 659.34604 C 541.06603 662.38886 531.16077 660.97387 525.70855 654.54048 C 538.7097 650.54009 563.17009 641.60936 563.17009 641.60936 C 557.88896 629.45204 546.49863 623.01709 535.60845 622.71056 z M 537.33166 631.16188 C 541.65546 631.18661 545.73187 633.31048 547.33221 638.8762 L 526.82054 645.90895 C 518.59108 639.86426 528.47817 631.11125 537.33166 631.16188 z " />
      <path
         id="path840-2"
         style="fill:#322c2c;fill-opacity:1;stroke:#322c2c;stroke-width:2.70502;stroke-linecap:butt;stroke-linejoin:round;stroke-miterlimit:4;stroke-dasharray:none;stroke-opacity:1"
         d="M 852.17945 622.10987 C 842.57047 621.8394 833.35165 626.34142 829.06578 635.89582 C 819.89574 657.1937 845.653 680.03994 870.79117 665.54475 L 863.9965 658.74765 C 857.63948 661.79047 847.73178 660.37318 842.27955 653.93978 C 855.28072 649.9394 879.74355 641.01097 879.74355 641.01097 C 874.46242 628.85366 863.06964 622.4164 852.17945 622.10987 z M 853.90267 630.5635 C 858.22647 630.58823 862.30534 632.7121 863.90567 638.27781 L 843.39154 645.31057 C 835.16209 639.26587 845.04918 630.51286 853.90267 630.5635 z " />
      <path
         id="path840-1"
         style="fill:#322c2c;fill-opacity:1;stroke:#322c2c;stroke-width:2.70502;stroke-linecap:butt;stroke-linejoin:round;stroke-miterlimit:4;stroke-dasharray:none;stroke-opacity:1"
         d="M 1005.4966 622.10987 C 995.88761 621.8394 986.66879 626.34142 982.38292 635.89582 C 973.21289 657.1937 998.97016 680.03994 1024.1083 665.54475 L 1017.3112 658.74765 C 1010.9542 661.79047 1001.0489 660.37318 995.5967 653.93978 C 1008.5978 649.9394 1033.0582 641.01097 1033.0582 641.01097 C 1027.7771 628.85366 1016.3868 622.4164 1005.4966 622.10987 z M 1007.2198 630.5635 C 1011.5436 630.58823 1015.62 632.7121 1017.2204 638.27781 L 996.70869 645.31057 C 988.47923 639.26587 998.36631 630.51286 1007.2198 630.5635 z " />
      <path
         sodipodi:nodetypes="cccccccc"
         inkscape:connector-curvature="0"
         id="path924"
         d="m 401.95623,622.4176 h 17.34759 l 12.1902,23.20825 9.84593,-23.20825 h 17.58201 l -26.78326,46.88539 c -1.47365,1.9844 -2.21642,2.07895 -3.75085,0 z"
         style="fill:#322c2c;fill-opacity:1;stroke:#322c2c;stroke-width:2.70502;stroke-linecap:butt;stroke-linejoin:round;stroke-miterlimit:4;stroke-dasharray:none;stroke-opacity:1" />
      <path
         sodipodi:nodetypes="ccccccccc"
         inkscape:connector-curvature="0"
         id="path926"
         d="m 469.11954,622.06595 h 14.30004 v 11.95579 c 5.8366,-7.65804 10.16065,-11.01788 19.22301,-12.77628 v 12.42463 c -7.43667,-0.22019 -13.02571,3.96376 -19.10579,11.36969 v 24.96646 h -14.41726 z"
         style="fill:#322c2c;fill-opacity:1;stroke:#322c2c;stroke-width:2.70502;stroke-linecap:butt;stroke-linejoin:round;stroke-miterlimit:4;stroke-dasharray:none;stroke-opacity:1" />
      <path
         sodipodi:nodetypes="ccccccccc"
         inkscape:connector-curvature="0"
         id="path926-2"
         d="m 702.04804,625.25592 h 12.79681 v 10.69902 c 5.22307,-6.85304 9.09254,-9.85971 17.20228,-11.43328 v 11.11857 c -6.65492,-0.19693 -11.65645,3.54713 -17.09739,10.17454 v 22.34199 h -12.9017 z"
         style="display:inline;fill:#322c2c;fill-opacity:1;stroke:#322c2c;stroke-width:2.70502;stroke-linecap:butt;stroke-linejoin:round;stroke-miterlimit:4;stroke-dasharray:none;stroke-opacity:1" />
      <path
         sodipodi:nodetypes="ccsccccccsccc"
         inkscape:connector-curvature="0"
         id="path943"
         d="m 679.0894,594.15008 c -100.07781,-32.19393 -83.18781,116.43134 3.96459,67.79952 0.29285,-0.20531 0.51855,-0.45998 0.69759,-0.74872 0.3699,-0.59662 0.54047,-1.33914 0.6922,-2.0955 l -0.21777,-30.83447 h -31.82682 v 15.08458 h 15.41611 v 9.78014 c -19.16611,5.99655 -32.90832,-0.10767 -38.06834,-11.2986 -4.02353,-8.72622 -3.32624,-24.35784 5.08117,-32.13175 9.27089,-8.40284 24.84886,-7.30712 36.96553,-3.48112 z"
         style="fill:#322c2c;fill-opacity:1;stroke:#322c2c;stroke-width:2.70502;stroke-linecap:butt;stroke-linejoin:round;stroke-miterlimit:4;stroke-dasharray:none;stroke-opacity:1" />
      <g
         transform="matrix(2.7050222,0,0,2.7050222,-959.82951,-780.15841)"
         id="g974"
         style="display:inline;fill:#322c2c;fill-opacity:1;stroke:#322c2c;stroke-width:1;stroke-miterlimit:4;stroke-dasharray:none;stroke-opacity:1">
        <rect
           style="fill:#322c2c;fill-opacity:1;stroke:#322c2c;stroke-width:1;stroke-linecap:round;stroke-linejoin:round;stroke-miterlimit:4;stroke-dasharray:none;stroke-dashoffset:0;stroke-opacity:1"
           id="rect947"
           width="5.5464683"
           height="17.332714"
           x="630.99744"
           y="518.68146" />
        <path
           style="fill:#322c2c;fill-opacity:1;stroke:#322c2c;stroke-width:1;stroke-linecap:butt;stroke-linejoin:round;stroke-miterlimit:4;stroke-dasharray:none;stroke-opacity:1"
           d="m 631.77742,514.13162 c -2.2164,-1.67576 0.086,-4.33941 2.3411,-4.56763 2.92774,0.0182 3.61058,3.75954 1.86211,4.5243 -1.27641,0.5863 -3.14725,0.6244 -4.20321,0.0433 z"
           id="path951"
           inkscape:connector-curvature="0"
           sodipodi:nodetypes="ccccc" />
      </g>
      <path
         sodipodi:nodetypes="ccccccccccccccc"
         inkscape:connector-curvature="0"
         id="path953"
         d="m 807.55519,632.24921 4.80717,-5.30449 c -3.78866,-6.62475 -12.19617,-7.75706 -17.07377,-7.62516 -5.27742,0.1242 -10.9863,2.75802 -13.59271,4.80717 -4.11415,2.83495 -6.41871,6.09409 -6.13333,11.272 0.51399,5.62882 3.15081,8.95257 7.29367,11.76931 5.20885,3.02162 10.83345,5.08197 16.41072,7.29365 4.63557,2.47058 4.27492,8.116 -1.49187,8.78554 -6.97609,0.3061 -11.1942,-3.30089 -15.74766,-7.29371 l -6.13333,7.45943 c 6.74512,9.61448 19.21367,11.13882 28.01428,9.28276 12.13171,-3.20767 14.11425,-23.85759 3.14958,-29.50615 -4.16003,-2.37667 -8.67065,-3.99907 -13.09541,-5.80176 -6.34217,-3.30542 -0.65413,-8.44632 1.49187,-9.11704 3.37766,-0.959 8.96304,0.833 12.10079,3.97845 z"
         style="fill:#322c2c;fill-opacity:1;stroke:#322c2c;stroke-width:2.70502;stroke-linecap:butt;stroke-linejoin:round;stroke-miterlimit:4;stroke-dasharray:none;stroke-opacity:1" />
      <path
         inkscape:connector-curvature="0"
         id="path955"
         d="m 899.05737,600.25659 h 14.5873 v 21.54942 h 10.60895 v 10.60898 h -10.60895 v 36.79979 h -14.5873 v -37.13132 h -8.9513 v -9.61439 h 8.61977 z"
         style="fill:#322c2c;fill-opacity:1;stroke:#322c2c;stroke-width:2.70502;stroke-linecap:butt;stroke-linejoin:round;stroke-miterlimit:4;stroke-dasharray:none;stroke-opacity:1" />
      <path
         inkscape:connector-curvature="0"
         id="path955-5"
         d="m 943.6481,600.91965 h 14.58728 v 21.54942 h 10.60897 v 10.60897 h -10.60897 v 36.7998 H 943.6481 v -37.13133 h -8.9513 v -9.61438 h 8.61977 z"
         style="display:inline;fill:#322c2c;fill-opacity:1;stroke:#322c2c;stroke-width:2.70502;stroke-linecap:butt;stroke-linejoin:round;stroke-miterlimit:4;stroke-dasharray:none;stroke-opacity:1" />
    </g>
  </g>
  <g
     inkscape:groupmode="layer"
     id="layer5"
     inkscape:label="tête"
     style="display:inline"
     transform="translate(-173.31184,-45.969391)"
     sodipodi:insensitive="true">
    <path
       style="display:inline;fill:none;stroke:#322c2c;stroke-width:6.04988;stroke-linecap:round;stroke-linejoin:round;stroke-miterlimit:4;stroke-dasharray:none;stroke-opacity:1"
       d="m 468.9909,419.2421 c 16.65188,99.35593 38.89752,183.51647 107.22871,228.32609 4.40656,2.13445 11.09623,7.97837 18.97014,3.12295 63.4182,-44.3787 66.55611,-164.63689 64.5803,-232.80208"
       id="path871-6"
       inkscape:connector-curvature="0"
       sodipodi:nodetypes="cccc" />
    <path
       style="display:inline;fill:none;stroke:#000000;stroke-width:6.04988;stroke-linecap:round;stroke-linejoin:miter;stroke-miterlimit:4;stroke-dasharray:none;stroke-opacity:1"
       d="m 554.38344,611.03558 c 5.42155,4.61838 10.84313,8.48009 16.26468,10.40464"
       id="path873-2"
       inkscape:connector-curvature="0"
       sodipodi:nodetypes="cc" />
    <path
       style="display:inline;fill:none;stroke:#000000;stroke-width:6.04988;stroke-linecap:round;stroke-linejoin:miter;stroke-miterlimit:4;stroke-dasharray:none;stroke-opacity:1"
       d="m 606.04775,607.5674 c -3.28425,5.28661 -7.58931,9.55239 -12.6769,13.03567"
       id="path875-6"
       inkscape:connector-curvature="0"
       sodipodi:nodetypes="cc" />
    <path
       style="display:inline;fill:none;stroke:#322c2c;stroke-width:6.04988;stroke-linecap:round;stroke-linejoin:round;stroke-miterlimit:4;stroke-dasharray:none;stroke-opacity:1"
       d="m 486.58046,408.75601 c -17.02986,7.61318 -32.9822,17.51714 -55.81305,21.98696 -42.93818,7.20152 -90.93637,5.69653 -120.75913,-1.6913 -15.35363,-5.31906 -10.66855,-10.61068 -3.04435,-15.89827 26.28197,-16.42761 44.5125,-28.08522 73.4026,-32.8113 23.8699,-4.87851 42.88629,-4.27034 66.97566,-2.70609 7.70193,0.8741 14.26577,3.73254 21.31043,6.76522 l 17.45798,-12.40457"
       id="path890-4"
       inkscape:connector-curvature="0"
       sodipodi:nodetypes="cccccccc" />
    <path
       style="display:inline;fill:none;stroke:#322c2c;stroke-width:6.04988;stroke-linecap:round;stroke-linejoin:round;stroke-miterlimit:4;stroke-dasharray:none;stroke-opacity:1"
       d="m 612.86456,355.22555 c 13.06356,9.22581 11.01332,8.06524 20.33086,16.2647 15.59173,-1.86816 29.80696,-0.75412 45.44544,-2.1527 44.09675,-4.46612 78.20814,9.5091 105.95964,28.22405 6.43315,5.3429 8.40253,10.50744 -2.15264,14.59036 -28.37315,12.2311 -62.69649,10.246 -88.97743,10.04584 -19.10656,-2.08987 -56.31931,-5.60611 -60.27501,-17.93899"
       id="path892-7"
       inkscape:connector-curvature="0"
       sodipodi:nodetypes="ccccccc" />
    <path
       style="display:inline;fill:none;stroke:#322c2c;stroke-width:6.04988;stroke-linecap:round;stroke-linejoin:round;stroke-miterlimit:4;stroke-dasharray:none;stroke-opacity:1"
       d="m 525.73558,349.2169 c 15.54711,-7.25973 29.24583,-4.14183 44.79295,-3.31961"
       id="path894-3"
       inkscape:connector-curvature="0"
       sodipodi:nodetypes="cc" />
  </g>
  <g
     inkscape:groupmode="layer"
     id="layer7"
     inkscape:label="couleur tête "
     style="display:inline"
     transform="translate(-173.31184,-45.969391)">
    <path
       style="fill:none;stroke:#474747;stroke-width:1px;stroke-linecap:butt;stroke-linejoin:miter;stroke-opacity:1"
       d="m 477.05806,379.5854 c 118.85704,64.60388 69.07403,219.52335 4.24264,103.23759"
       id="path865"
       inkscape:connector-curvature="0"
       sodipodi:nodetypes="cc" />
    <path
       style="display:inline;fill:none;stroke:#474747;stroke-width:1px;stroke-linecap:butt;stroke-linejoin:miter;stroke-opacity:1"
       d="m 623.39671,365.38822 c -67.61745,95.11659 -11.38582,239.0015 35.35534,98.99494"
       id="path867"
       inkscape:connector-curvature="0"
       sodipodi:nodetypes="cc" />
    <path
       style="opacity:1;fill:#322c2c;fill-opacity:1;stroke:#322c2c;stroke-width:2.2;stroke-linecap:round;stroke-linejoin:round;stroke-miterlimit:4;stroke-dasharray:none;stroke-dashoffset:0;stroke-opacity:1"
       d="m 515.82651,520.93522 c -7.55353,-3.8131 -16.66733,-12.64762 -23.99686,-23.26149 -5.05395,-7.31863 -5.44847,-8.37217 -8.77706,-23.43916 -3.85331,-17.44213 -10.75469,-54.30465 -10.25142,-54.75621 0.17616,-0.15806 4.0328,-2.14472 8.5703,-4.41479 6.86897,-3.43649 8.25,-4.52612 8.25,-6.50926 0,-1.31001 -0.72121,-2.6586 -1.60268,-2.99685 -0.94295,-0.36185 -8.15194,2.48879 -17.51282,6.92506 -33.01812,15.64779 -50.00712,18.91869 -97.8845,18.8457 -20.54417,-0.0313 -31.57067,-0.48664 -39.5,-1.63109 -15.43462,-2.22768 -25.0859,-4.57812 -27.7336,-6.75415 -2.26618,-1.86247 -2.26621,-1.86285 -0.2664,-3.85356 7.41407,-7.38035 45.58389,-27.52512 59.89556,-31.61091 20.09797,-5.73768 30.96825,-7.02751 58.10444,-6.89446 26.46653,0.12976 28.23608,0.39418 43.10661,6.44135 2.89028,1.17534 3.43238,1.02935 7.78521,-2.09661 l 4.6786,-3.35992 3.21479,1.85308 c 14.63817,8.4378 32.05611,23.85915 42.29218,37.44433 7.84962,10.4179 16.43394,27.40859 20.00344,39.59221 3.21712,10.98088 4.449,31.25526 2.45177,40.35158 -1.80709,8.23033 -6.71354,16.9089 -11.26075,19.9181 -6.02784,3.98904 -11.95078,4.05171 -19.56681,0.20705 z"
       id="path906"
       inkscape:connector-curvature="0" />
    <path
       style="opacity:1;fill:#322c2c;fill-opacity:1;stroke:#322c2c;stroke-width:2.2;stroke-linecap:round;stroke-linejoin:round;stroke-miterlimit:4;stroke-dasharray:none;stroke-dashoffset:0;stroke-opacity:1"
       d="m 612.86653,520.46555 c -9.84861,-4.2804 -17.14533,-21.22364 -19.06758,-44.27557 -2.22057,-26.62939 3.48665,-58.3027 14.99658,-83.22638 4.23934,-9.1799 12.44603,-23.65228 13.93354,-24.57162 0.50493,-0.31206 2.77666,1.02352 5.0483,2.96796 l 4.13026,3.53535 11.10692,-0.48533 c 6.1088,-0.26693 20.7094,-0.98635 32.44577,-1.59871 29.61574,-1.54524 43.71529,-0.15421 64.16115,6.33 15.88411,5.0375 41.11903,18.35522 45.96757,24.25938 1.3136,1.5996 1.2383,1.97274 -0.71782,3.5567 -2.44291,1.97815 -18.79893,7.34254 -27.24975,8.93728 -19.01979,3.58918 -55.07145,4.08502 -78.21176,1.07568 -26.00033,-3.38128 -40.02992,-7.85729 -42.64965,-13.60697 -1.17659,-2.58234 -3.99025,-3.15318 -5.93859,-1.20483 -1.88052,1.88051 -1.44858,3.44729 2.04833,7.43006 3.46456,3.94591 9.96858,7.25675 18.50167,9.4182 l 5.25,1.32984 v 23.84865 23.84865 l -3.37511,8.73925 c -9.03658,23.39869 -20.10193,39.5786 -29.84277,43.63652 -4.51617,1.88138 -6.31489,1.89092 -10.53706,0.0559 z"
       id="path908"
       inkscape:connector-curvature="0" />
    <path
       style="opacity:1;fill:#474747;fill-opacity:1;stroke:#474747;stroke-width:0.777817;stroke-linecap:round;stroke-linejoin:round;stroke-miterlimit:4;stroke-dasharray:none;stroke-dashoffset:0;stroke-opacity:1"
       d="m 369.97769,432.39515 c 1.21534,-0.069 3.20408,-0.069 4.41942,0 1.21534,0.069 0.22097,0.12552 -2.20971,0.12552 -2.43068,0 -3.42505,-0.0565 -2.20971,-0.12552 z"
       id="path910"
       inkscape:connector-curvature="0" />
    <path
       style="opacity:1;fill:#322c2c;fill-opacity:1;stroke:none;stroke-width:0.194454;stroke-linecap:round;stroke-linejoin:round;stroke-miterlimit:4;stroke-dasharray:none;stroke-dashoffset:0;stroke-opacity:1"
       d="m 366.49273,438.36776 c -18.71516,-0.29024 -37.32275,-2.14002 -51.45558,-5.11521 -1.02835,-0.21648 -1.89358,-0.39361 -1.92273,-0.39361 -0.0291,0 -0.0429,-6.08911 -0.0306,-13.53137 l 0.0224,-13.53137 2.87262,-1.77083 c 12.6573,-7.80262 21.44272,-12.64347 29.54852,-16.28151 l 2.28072,-1.02363 h 46.66433 46.66433 v 22.30753 22.30754 l -0.99437,0.27691 c -4.29274,1.19544 -8.08776,1.98302 -13.6339,2.82946 -18.78504,2.86693 -39.77426,4.24 -60.01569,3.92609 z m 1.12695,-6.0162 c -0.30383,-0.0173 -0.80102,-0.0173 -1.10485,0 -0.30383,0.0173 -0.0552,0.0314 0.55243,0.0314 0.60767,0 0.85626,-0.0141 0.55242,-0.0314 z"
       id="path912"
       inkscape:connector-curvature="0" />
    <ellipse
       style="opacity:1;fill:#ffffff;fill-opacity:1;stroke:#ffffff;stroke-width:2.83416;stroke-linecap:round;stroke-linejoin:round;stroke-miterlimit:4;stroke-dasharray:none;stroke-dashoffset:0;stroke-opacity:1"
       id="path914"
       cx="524.08069"
       cy="498.02579"
       rx="11.350182"
       ry="11.350181" />
    <ellipse
       style="display:inline;opacity:1;fill:#ffffff;fill-opacity:1;stroke:#ffffff;stroke-width:2.83416;stroke-linecap:round;stroke-linejoin:round;stroke-miterlimit:4;stroke-dasharray:none;stroke-dashoffset:0;stroke-opacity:1"
       id="path914-2"
       cx="621.30786"
       cy="492.01538"
       rx="11.350182"
       ry="11.350181" />
    <ellipse
       style="display:inline;opacity:1;fill:#000000;fill-opacity:1;stroke:#000000;stroke-width:3.7015;stroke-linecap:round;stroke-linejoin:round;stroke-miterlimit:4;stroke-dasharray:none;stroke-dashoffset:0;stroke-opacity:1"
       id="path931-8-9"
       transform="matrix(0.95203304,0.30599525,-0.22813227,0.97363015,0,0)"
       ry="6.4015045"
       rx="6.9398375"
       cy="316.16779"
       cx="626.40924" />
    <ellipse
       style="opacity:1;fill:#ffffff;fill-opacity:1;stroke:none;stroke-width:8.67404;stroke-linecap:round;stroke-linejoin:round;stroke-miterlimit:4;stroke-dasharray:none;stroke-dashoffset:0;stroke-opacity:1"
       id="path1079"
       cx="518.68182"
       cy="495.84027"
       rx="1.7882936"
       ry="1.971352" />
    <ellipse
       style="display:inline;opacity:1;fill:#000000;fill-opacity:1;stroke:#000000;stroke-width:3.7015;stroke-linecap:round;stroke-linejoin:round;stroke-miterlimit:4;stroke-dasharray:none;stroke-dashoffset:0;stroke-opacity:1"
       id="path931-8-9-8"
       transform="matrix(-0.05393686,0.99854435,-0.99963925,0.02685844,0,0)"
       ry="6.4015045"
       rx="6.9398375"
       cy="-649.78754"
       cx="510.56445" />
    <ellipse
       style="display:inline;opacity:1;fill:#ffffff;fill-opacity:1;stroke:none;stroke-width:8.67404;stroke-linecap:round;stroke-linejoin:round;stroke-miterlimit:4;stroke-dasharray:none;stroke-dashoffset:0;stroke-opacity:1"
       id="path1079-2"
       cx="617.29651"
       cy="488.983"
       rx="1.7882936"
       ry="1.971352" />
  </g>
  <g
     inkscape:groupmode="layer"
     id="layer8"
     inkscape:label="cornes couleur marron"
     style="display:none"
     transform="translate(-173.31184,-45.969391)">
    <path
       style="display:inline;fill:#803300;fill-opacity:1;stroke:#803300;stroke-width:6.63629;stroke-linecap:round;stroke-linejoin:round;stroke-miterlimit:4;stroke-dasharray:none;stroke-opacity:1"
       d="M 487.93352,379.32712 C 467.66669,301.40723 430.3689,220.3933 405.09558,196.21567 c -7.36916,-6.51511 -13.36254,-12.88768 -21.96731,-15.77788 -13.88003,-3.46201 -46.72204,-11.33842 -2.62481,-9.77708 1.55391,0.055 5.32706,0.60721 5.32706,0.60721 52.24744,10.6915 126.58209,142.78243 146.20826,194.16857 -6.31969,16.90159 -21.32083,21.00441 -44.10525,13.89042 z"
       id="path965-34"
       inkscape:connector-curvature="0"
       sodipodi:nodetypes="cccsccc" />
    <path
       style="display:inline;fill:#803300;fill-opacity:1;stroke:#803300;stroke-width:6.1132;stroke-linecap:round;stroke-linejoin:round;stroke-miterlimit:4;stroke-dasharray:none;stroke-opacity:1"
       d="m 612.20807,366.88253 c -0.8327,-75.4194 12.48301,-157.82765 28.81706,-185.90253 4.88987,-7.70284 8.61127,-14.93819 15.44384,-19.66871 11.30693,-6.5458 38.13575,-21.7493 -0.0329,-9.48343 -1.345,0.43225 -4.51128,1.86011 -4.51128,1.86011 -43.11878,22.52467 -76.64738,160.21738 -81.57003,211.49559 9.54604,13.72151 23.63331,13.73742 41.8534,1.69878 z"
       id="path965-3-8"
       inkscape:connector-curvature="0"
       sodipodi:nodetypes="cccsccc" />
  </g>
  <g
     inkscape:groupmode="layer"
     id="layer11"
     inkscape:label="cornes trait"
     style="display:inline"
     transform="translate(-173.31184,-45.969391)">
    <path
       style="display:inline;fill:none;fill-opacity:1;stroke:#322c2c;stroke-width:6.636;stroke-linecap:round;stroke-linejoin:round;stroke-miterlimit:4;stroke-dasharray:none;stroke-opacity:1"
       d="M 487.93353,379.32691 C 467.6667,301.40702 430.36891,220.39309 405.09559,196.21545 c -7.36916,-6.5151 -13.36254,-12.88767 -21.96731,-15.77788 -13.88003,-3.462 -46.72204,-11.33842 -2.62481,-9.77708 1.55391,0.055 5.32706,0.60722 5.32706,0.60722 52.24744,10.6915 126.58209,142.78243 146.20826,194.16857 -6.31969,16.90159 -21.32083,21.00441 -44.10525,13.89042 z"
       id="path965-0"
       inkscape:connector-curvature="0"
       sodipodi:nodetypes="cccsccc" />
    <path
       style="display:inline;fill:none;fill-opacity:1;stroke:#322c2c;stroke-width:6.1132;stroke-linecap:round;stroke-linejoin:round;stroke-miterlimit:4;stroke-dasharray:none;stroke-opacity:1"
       d="m 612.20808,366.88232 c -0.8327,-75.4194 12.48301,-157.82765 28.81706,-185.90253 4.88987,-7.70285 8.61127,-14.9382 15.44384,-19.66871 11.30693,-6.5458 38.13575,-21.7493 -0.0329,-9.48343 -1.345,0.43224 -4.51128,1.86011 -4.51128,1.86011 -43.11878,22.52467 -76.64738,160.21738 -81.57003,211.49559 9.54604,13.72151 23.63331,13.73742 41.8534,1.69878 z"
       id="path965-3-5"
       inkscape:connector-curvature="0"
       sodipodi:nodetypes="cccsccc" />
    <path
       style="fill:none;stroke:#322c2c;stroke-width:4.9;stroke-linecap:butt;stroke-linejoin:miter;stroke-miterlimit:4;stroke-dasharray:none;stroke-opacity:1"
       d="m 519.41784,338.65456 c -11.81792,10.58478 -25.01549,13.58148 -39.5,9.5"
       id="path897"
       inkscape:connector-curvature="0"
       sodipodi:nodetypes="cc" />
    <path
       style="fill:none;stroke:#322c2c;stroke-width:4.9;stroke-linecap:butt;stroke-linejoin:miter;stroke-miterlimit:4;stroke-dasharray:none;stroke-opacity:1"
       d="m 513.6828,322.73304 c -5.55691,8.79592 -22.24166,12.78896 -39.5,9.5"
       id="path897-1"
       inkscape:connector-curvature="0"
       sodipodi:nodetypes="cc" />
    <path
       style="fill:none;stroke:#322c2c;stroke-width:4.9;stroke-linecap:butt;stroke-linejoin:miter;stroke-miterlimit:4;stroke-dasharray:none;stroke-opacity:1"
       d="m 505.6828,304.73304 c -11.81792,10.58478 -25.01549,13.58148 -39.5,9.5"
       id="path897-9"
       inkscape:connector-curvature="0"
       sodipodi:nodetypes="cc" />
    <path
       style="fill:none;stroke:#322c2c;stroke-width:4.9;stroke-linecap:butt;stroke-linejoin:miter;stroke-miterlimit:4;stroke-dasharray:none;stroke-opacity:1"
       d="m 492.4328,287.23304 c -6.55012,9.07969 -12.73493,12.92989 -31.25,10"
       id="path897-14"
       inkscape:connector-curvature="0"
       sodipodi:nodetypes="cc" />
    <path
       style="fill:none;stroke:#322c2c;stroke-width:4.9;stroke-linecap:butt;stroke-linejoin:miter;stroke-miterlimit:4;stroke-dasharray:none;stroke-opacity:1"
       d="m 483.40406,268.90678 c -5.39998,9.8074 -11.0719,14.37963 -29.80567,13.71803"
       id="path897-14-8"
       inkscape:connector-curvature="0"
       sodipodi:nodetypes="cc" />
    <path
       style="fill:none;stroke:#322c2c;stroke-width:4.9;stroke-linecap:butt;stroke-linejoin:miter;stroke-miterlimit:4;stroke-dasharray:none;stroke-opacity:1"
       d="m 474.99084,256.16114 c -6.55012,7.23108 -8.23493,10.79433 -26.75,11.25"
       id="path897-14-3"
       inkscape:connector-curvature="0"
       sodipodi:nodetypes="cc" />
    <path
       style="fill:none;stroke:#322c2c;stroke-width:4.9;stroke-linecap:butt;stroke-linejoin:miter;stroke-miterlimit:4;stroke-dasharray:none;stroke-opacity:1"
       d="m 464.74084,242.66114 c -2.34791,4.37039 -7.06937,11.91781 -23.75,10"
       id="path897-14-0"
       inkscape:connector-curvature="0"
       sodipodi:nodetypes="cc" />
    <path
       style="fill:none;stroke:#322c2c;stroke-width:4.9;stroke-linecap:butt;stroke-linejoin:miter;stroke-miterlimit:4;stroke-dasharray:none;stroke-opacity:1"
       d="m 453.49084,228.91114 c -5.04925,6.98769 -11.62472,8.34282 -20.75,6.75"
       id="path897-14-6"
       inkscape:connector-curvature="0"
       sodipodi:nodetypes="cc" />
    <path
       style="fill:none;stroke:#322c2c;stroke-width:4.9;stroke-linecap:butt;stroke-linejoin:miter;stroke-miterlimit:4;stroke-dasharray:none;stroke-opacity:1"
       d="m 443.47511,212.9112 c -4.22555,7.51448 -10.60529,9.60545 -19.85224,9.05614"
       id="path897-14-6-2"
       inkscape:connector-curvature="0"
       sodipodi:nodetypes="cc" />
    <path
       style="fill:none;stroke:#322c2c;stroke-width:4.9;stroke-linecap:butt;stroke-linejoin:miter;stroke-miterlimit:4;stroke-dasharray:none;stroke-opacity:1"
       d="m 430.61284,198.89773 c -3.56001,7.85169 -6.86007,8.61143 -16.11988,8.86369"
       id="path897-14-6-5"
       inkscape:connector-curvature="0"
       sodipodi:nodetypes="cc" />
    <path
       style="fill:none;stroke:#322c2c;stroke-width:4.9;stroke-linecap:butt;stroke-linejoin:miter;stroke-miterlimit:4;stroke-dasharray:none;stroke-opacity:1"
       d="m 421.14546,189.87902 c -3.56001,7.85169 -5.36007,8.23643 -14.61988,8.48869"
       id="path897-14-6-5-0"
       inkscape:connector-curvature="0"
       sodipodi:nodetypes="cc" />
    <path
       style="fill:none;stroke:#322c2c;stroke-width:4.9;stroke-linecap:butt;stroke-linejoin:miter;stroke-miterlimit:4;stroke-dasharray:none;stroke-opacity:1"
       d="m 408.27046,180.62902 c -2.12295,4.56585 -3.84594,7.40118 -10.86988,7.48869"
       id="path897-14-6-5-4"
       inkscape:connector-curvature="0"
       sodipodi:nodetypes="cc" />
    <path
       style="fill:none;stroke:#322c2c;stroke-width:4.9;stroke-linecap:butt;stroke-linejoin:miter;stroke-miterlimit:4;stroke-dasharray:none;stroke-opacity:1"
       d="m 573.9758,338.60708 c 13.91671,7.61747 24.69996,7.15701 37.87551,-0.11379"
       id="path897-6"
       inkscape:connector-curvature="0"
       sodipodi:nodetypes="cc" />
    <path
       style="fill:none;stroke:#322c2c;stroke-width:4.9;stroke-linecap:butt;stroke-linejoin:miter;stroke-miterlimit:4;stroke-dasharray:none;stroke-opacity:1"
       d="m 576.18689,322.11066 c 7.41288,7.30046 29.63105,6.57906 37.6255,-0.42629"
       id="path897-1-7"
       inkscape:connector-curvature="0"
       sodipodi:nodetypes="cc" />
    <path
       style="fill:none;stroke:#322c2c;stroke-width:4.9;stroke-linecap:butt;stroke-linejoin:miter;stroke-miterlimit:4;stroke-dasharray:none;stroke-opacity:1"
       d="m 581.00547,303.57485 c 13.91672,7.61747 24.19997,5.907 33.25051,1.5112"
       id="path897-9-6"
       inkscape:connector-curvature="0"
       sodipodi:nodetypes="cc" />
    <path
       style="fill:none;stroke:#322c2c;stroke-width:4.9;stroke-linecap:butt;stroke-linejoin:miter;stroke-miterlimit:4;stroke-dasharray:none;stroke-opacity:1"
       d="m 585.80009,282.01861 c 8.44461,7.35073 19.96836,10.69235 31.33078,2.87564"
       id="path897-14-4"
       inkscape:connector-curvature="0"
       sodipodi:nodetypes="cc" />
    <path
       style="fill:none;stroke:#322c2c;stroke-width:4.9;stroke-linecap:butt;stroke-linejoin:miter;stroke-miterlimit:4;stroke-dasharray:none;stroke-opacity:1"
       d="m 590.42116,262.11847 c 7.49027,8.3211 15.30392,10.35752 28.39552,6.8248"
       id="path897-14-8-8"
       inkscape:connector-curvature="0"
       sodipodi:nodetypes="cc" />
    <path
       style="fill:none;stroke:#322c2c;stroke-width:4.9;stroke-linecap:butt;stroke-linejoin:miter;stroke-miterlimit:4;stroke-dasharray:none;stroke-opacity:1"
       d="m 595.71293,247.79259 c 8.02391,5.55063 11.44419,7.85569 26.98335,5.05445"
       id="path897-14-3-9"
       inkscape:connector-curvature="0"
       sodipodi:nodetypes="cc" />
    <path
       style="fill:none;stroke:#322c2c;stroke-width:4.9;stroke-linecap:butt;stroke-linejoin:miter;stroke-miterlimit:4;stroke-dasharray:none;stroke-opacity:1"
       d="m 602.62159,232.31412 c 3.28093,3.72136 12.33619,8.67038 21.73448,4.95123"
       id="path897-14-0-5"
       inkscape:connector-curvature="0"
       sodipodi:nodetypes="cc" />
    <path
       style="fill:none;stroke:#322c2c;stroke-width:4.9;stroke-linecap:butt;stroke-linejoin:miter;stroke-miterlimit:4;stroke-dasharray:none;stroke-opacity:1"
       d="m 610.44713,216.36463 c 6.50702,5.65521 12.64383,4.19669 16.74773,3.13217"
       id="path897-14-6-1"
       inkscape:connector-curvature="0"
       sodipodi:nodetypes="cc" />
    <path
       style="fill:none;stroke:#322c2c;stroke-width:4.9;stroke-linecap:butt;stroke-linejoin:miter;stroke-miterlimit:4;stroke-dasharray:none;stroke-opacity:1"
       d="m 616.55872,198.50515 c 5.82484,6.35563 12.15948,6.10012 15.24933,5.14017"
       id="path897-14-6-2-3"
       inkscape:connector-curvature="0"
       sodipodi:nodetypes="cc" />
    <path
       style="fill:none;stroke:#322c2c;stroke-width:4.9;stroke-linecap:butt;stroke-linejoin:miter;stroke-miterlimit:4;stroke-dasharray:none;stroke-opacity:1"
       d="m 625.89425,181.93218 c 5.2535,6.83546 10.93796,6.2939 12.67596,5.31605"
       id="path897-14-6-5-9"
       inkscape:connector-curvature="0"
       sodipodi:nodetypes="cc" />
    <path
       style="fill:none;stroke:#322c2c;stroke-width:4.9;stroke-linecap:butt;stroke-linejoin:miter;stroke-miterlimit:4;stroke-dasharray:none;stroke-opacity:1"
       d="m 633.0607,170.99553 c 5.2535,6.83545 8.99423,6.13752 10.9974,5.60162"
       id="path897-14-6-5-0-4"
       inkscape:connector-curvature="0"
       sodipodi:nodetypes="cc" />
    <path
       style="fill:none;stroke:#322c2c;stroke-width:4.9;stroke-linecap:butt;stroke-linejoin:miter;stroke-miterlimit:4;stroke-dasharray:none;stroke-opacity:1"
       d="m 643.49271,159.05814 c 3.10635,3.96289 8.05439,5.64419 10.47644,4.75588"
       id="path897-14-6-5-4-8"
       inkscape:connector-curvature="0"
       sodipodi:nodetypes="cc" />
  </g>
  <g
     inkscape:groupmode="layer"
     id="layer9"
     inkscape:label="fleur"
     style="display:inline"
     transform="translate(-173.31184,-45.969391)">
    <path
       style="fill:#ffc1d4;fill-opacity:1;stroke:#ffc1d4;stroke-width:4.93786;stroke-linecap:butt;stroke-linejoin:miter;stroke-miterlimit:4;stroke-dasharray:none;stroke-opacity:1"
       d="m 630.4386,384.82868 c 53.63862,10.92349 19.50439,-61.84124 -4.50407,-12.38311 4.71678,4.91662 5.62145,8.89792 4.50407,12.38311"
       id="path1281"
       inkscape:connector-curvature="0"
       sodipodi:nodetypes="ccc" />
    <path
       style="fill:#ffc1d4;fill-opacity:1;stroke:#ffc1d4;stroke-width:4.93786;stroke-linecap:butt;stroke-linejoin:miter;stroke-miterlimit:4;stroke-dasharray:none;stroke-opacity:1"
       d="m 622.77736,386.64308 c 8.32434,46.19665 66.56016,2.33334 8.11209,-5.36535 -1.63941,3.04442 -4.0585,5.16902 -8.11209,5.36535"
       id="path1279"
       inkscape:connector-curvature="0"
       sodipodi:nodetypes="ccc" />
    <path
       style="fill:#ffc1d4;fill-opacity:1;stroke:#ffc1d4;stroke-width:4.93786;stroke-linecap:butt;stroke-linejoin:miter;stroke-miterlimit:4;stroke-dasharray:none;stroke-opacity:1"
       d="m 614.39328,382.12912 c -43.38828,32.75278 23.70873,58.33428 8.38408,4.51396 -3.5296,0.12254 -6.13642,-1.79808 -8.38408,-4.51396 z"
       id="path1277"
       inkscape:connector-curvature="0"
       sodipodi:nodetypes="ccc" />
    <path
       style="fill:#ffc1d4;fill-opacity:1;stroke:#ffc1d4;stroke-width:4.93786;stroke-linecap:butt;stroke-linejoin:miter;stroke-miterlimit:4;stroke-dasharray:none;stroke-opacity:1"
       d="m 617.36492,373.73577 c -46.29353,-30.0887 -43.57376,43.7301 -2.55501,11.24534 -1.15778,-3.28741 -2.00837,-5.90245 2.55501,-11.24534 z"
       id="path1275"
       inkscape:connector-curvature="0"
       sodipodi:nodetypes="ccc" />
    <path
       style="fill:#ffc1d4;fill-opacity:1;stroke:#ffc1d4;stroke-width:4.93786;stroke-linecap:butt;stroke-linejoin:miter;stroke-miterlimit:4;stroke-dasharray:none;stroke-opacity:1"
       d="m 617.22083,376.51579 c -47.1079,-36.40262 24.4924,-43.71065 10.42061,-1.9878 -5.18554,-0.0304 -9.11484,0.95446 -10.42061,1.9878 z"
       id="path1273"
       inkscape:connector-curvature="0"
       sodipodi:nodetypes="ccc" />
    <path
       style="fill:none;stroke:#000000;stroke-width:1px;stroke-linecap:round;stroke-linejoin:miter;stroke-opacity:1"
       d="m 608.41784,355.15456 c 2.46495,3.5329 5.71925,9.1694 6.875,12.375"
       id="path993"
       inkscape:connector-curvature="0"
       sodipodi:nodetypes="cc" />
    <path
       style="fill:none;stroke:#000000;stroke-width:1px;stroke-linecap:round;stroke-linejoin:miter;stroke-opacity:1"
       d="m 616.41784,353.15456 c 1.97294,3.2776 3.85304,8.51591 4.5,12.125"
       id="path996"
       inkscape:connector-curvature="0"
       sodipodi:nodetypes="cc" />
    <path
       style="fill:none;stroke:#000000;stroke-width:1px;stroke-linecap:round;stroke-linejoin:miter;stroke-opacity:1"
       d="m 606.91784,377.02956 c -8.16567,-1.30177 -13.1445,-1.07641 -16.5,-0.875"
       id="path998"
       inkscape:connector-curvature="0"
       sodipodi:nodetypes="cc" />
    <path
       style="fill:none;stroke:#000000;stroke-width:1px;stroke-linecap:round;stroke-linejoin:miter;stroke-opacity:1"
       d="m 607.04284,382.52956 c -4.29167,-0.0182 -11.70833,0.67292 -16,2.625"
       id="path1000"
       inkscape:connector-curvature="0"
       sodipodi:nodetypes="cc" />
    <path
       style="fill:none;stroke:#000000;stroke-width:1px;stroke-linecap:butt;stroke-linejoin:miter;stroke-opacity:1"
       d="m 613.66784,393.27956 c -4.51072,4.75 -6.73741,9.5 -7.25,14.25"
       id="path1002"
       inkscape:connector-curvature="0"
       sodipodi:nodetypes="cc" />
    <path
       style="fill:none;stroke:#000000;stroke-width:1px;stroke-linecap:round;stroke-linejoin:miter;stroke-opacity:1"
       d="m 619.66784,396.40456 c -1.60062,3.57379 -4.55866,8.82762 -5,14.25"
       id="path1004"
       inkscape:connector-curvature="0"
       sodipodi:nodetypes="cc" />
    <path
       style="fill:none;stroke:#000000;stroke-width:1px;stroke-linecap:round;stroke-linejoin:miter;stroke-opacity:1"
       d="m 631.66784,393.77956 c 4.51463,1.64418 9.79642,3.78098 13,8.375"
       id="path1006"
       inkscape:connector-curvature="0"
       sodipodi:nodetypes="cc" />
    <path
       style="fill:none;stroke:#000000;stroke-width:1px;stroke-linecap:round;stroke-linejoin:miter;stroke-opacity:1"
       d="m 635.54284,389.27956 c 6.30045,1.7458 12.57402,5.17092 14.875,7.25"
       id="path1008"
       inkscape:connector-curvature="0"
       sodipodi:nodetypes="cc" />
    <path
       style="fill:none;stroke:#000000;stroke-width:1px;stroke-linecap:round;stroke-linejoin:miter;stroke-opacity:1"
       d="m 633.04284,369.77956 c 4.13153,-3.44528 8.31244,-6.79179 13.75,-7.625"
       id="path1010"
       inkscape:connector-curvature="0"
       sodipodi:nodetypes="cc" />
    <path
       style="fill:none;stroke:#000000;stroke-width:1px;stroke-linecap:round;stroke-linejoin:miter;stroke-opacity:1"
       d="m 637.04284,377.15456 c 4.07361,-2.67639 8.12699,-5.37301 13.5,-6.75"
       id="path1012"
       inkscape:connector-curvature="0"
       sodipodi:nodetypes="cc" />
    <ellipse
       style="opacity:1;fill:#fbfb85;fill-opacity:1;stroke:none;stroke-width:1.82452;stroke-linecap:round;stroke-linejoin:round;stroke-miterlimit:4;stroke-dasharray:none;stroke-dashoffset:0;stroke-opacity:1"
       id="path1271"
       cx="534.67145"
       cy="493.6618"
       rx="16.398745"
       ry="15.906261"
       transform="matrix(0.98119506,-0.19301878,0.19650206,0.98050341,0,0)" />
  </g>
</svg>
