<?xml version="1.0" encoding="UTF-8" standalone="no"?>
<!-- Created with Inkscape (http://www.inkscape.org/) -->

<svg
   xmlns:dc="http://purl.org/dc/elements/1.1/"
   xmlns:cc="http://creativecommons.org/ns#"
   xmlns:rdf="http://www.w3.org/1999/02/22-rdf-syntax-ns#"
   xmlns:svg="http://www.w3.org/2000/svg"
   xmlns="http://www.w3.org/2000/svg"
   xmlns:sodipodi="http://sodipodi.sourceforge.net/DTD/sodipodi-0.dtd"
   xmlns:inkscape="http://www.inkscape.org/namespaces/inkscape"
   version="1.1"
   id="svg815"
   width="1080"
   height="746"
   viewBox="0 0 1080 746"
   sodipodi:docname="logo_chèvre_Grisette_v3_texte plus petit.svg"
   inkscape:version="0.92.3 (2405546, 2018-03-11)"
   inkscape:export-filename="C:\Users\adeli\Pictures\Logo chèvrerie\logo_La_chèvre_Grisette_fond blanc.png"
   inkscape:export-xdpi="249"
   inkscape:export-ydpi="249">
  <metadata
     id="metadata821">
    <rdf:RDF>
      <cc:Work
         rdf:about="">
        <dc:format>image/svg+xml</dc:format>
        <dc:type
           rdf:resource="http://purl.org/dc/dcmitype/StillImage" />
        <dc:title />
      </cc:Work>
    </rdf:RDF>
  </metadata>
  <defs
     id="defs819" />
  <sodipodi:namedview
     pagecolor="#ffffff"
     bordercolor="#666666"
     borderopacity="1"
     objecttolerance="10"
     gridtolerance="10"
     guidetolerance="10"
     inkscape:pageopacity="0"
     inkscape:pageshadow="2"
     inkscape:window-width="1366"
     inkscape:window-height="705"
     id="namedview817"
     showgrid="false"
     units="px"
     inkscape:zoom="0.35355339"
     inkscape:cx="108.30581"
     inkscape:cy="439.94341"
     inkscape:window-x="-8"
     inkscape:window-y="-8"
     inkscape:window-maximized="1"
     inkscape:current-layer="layer2" />
  <g
     inkscape:groupmode="layer"
     id="layer12"
     inkscape:label="fond blanc"
     sodipodi:insensitive="true"
     style="display:inline">
    <rect
       style="opacity:1;fill:#ffffff;fill-opacity:1;stroke:none;stroke-width:0.82700002;stroke-linecap:round;stroke-linejoin:round;stroke-miterlimit:4;stroke-dasharray:none;stroke-dashoffset:0;stroke-opacity:1"
       id="rect908"
       width="1084"
       height="748"
       x="-2"
       y="2" />
  </g>
  <g
     inkscape:groupmode="layer"
     id="layer2"
     inkscape:label="texte"
     style="display:inline"
     sodipodi:insensitive="true">
    <g
       id="g933"
       transform="matrix(0.79565976,0,0,0.84537466,139.43699,76.328595)">
      <path
         sodipodi:nodetypes="ccccccc"
         inkscape:connector-curvature="0"
         id="path828"
         d="m 46.096216,586.55031 15.706631,-4e-5 v 68.92151 h 36.570574 v 13.59677 H 45.861799 Z"
         style="fill:#322c2c;fill-opacity:1;stroke:#322c2c;stroke-width:2.7050221;stroke-linecap:butt;stroke-linejoin:round;stroke-miterlimit:4;stroke-dasharray:none;stroke-opacity:1" />
      <path
         sodipodi:nodetypes="ccccccc"
         inkscape:connector-curvature="0"
         id="path830"
         d="m 166.37679,621.80601 0.16581,47.40877 h -11.27199 v -5.47027 c -45.39184,39.53339 -68.152056,-68.1719 -0.33155,-34.3133 v -7.6252 z"
         style="fill:#322c2c;fill-opacity:1;stroke:#322c2c;stroke-width:2.7050221;stroke-linecap:butt;stroke-linejoin:round;stroke-miterlimit:4;stroke-dasharray:none;stroke-opacity:1" />
      <ellipse
         ry="13.219246"
         rx="12.170215"
         cy="646.07648"
         cx="140.13142"
         id="path832"
         style="opacity:1;fill:#ffffff;fill-opacity:1;stroke:#322c2c;stroke-width:2.7050221;stroke-linecap:round;stroke-linejoin:round;stroke-miterlimit:4;stroke-dasharray:none;stroke-dashoffset:0;stroke-opacity:1" />
      <path
         sodipodi:nodetypes="ccccc"
         inkscape:connector-curvature="0"
         id="path834"
         d="m 258.48699,635.42828 4.17452,-7.23049 c -63.31816,-23.90411 -51.13915,65.80422 0.74842,37.94052 l -7.03277,-6.09513 c -24.77596,10.02398 -33.82639,-32.83148 2.10983,-24.6149 z"
         style="fill:#322c2c;fill-opacity:1;stroke:#322c2c;stroke-width:2.7050221;stroke-linecap:round;stroke-linejoin:round;stroke-miterlimit:4;stroke-dasharray:none;stroke-opacity:1" />
      <path
         sodipodi:nodetypes="ccccccccccc"
         inkscape:connector-curvature="0"
         id="path836"
         d="m 276.77618,584.1774 h 14.42152 v 49.89521 c 9.76124,-16.92696 33.89861,-16.96813 35.65958,-2.81455 l -0.35165,38.95131 h -14.75307 v -32.48993 c -0.19964,-11.69013 -21.17548,0.84577 -20.38908,5.47024 l -0.16574,26.19086 h -14.08999 z"
         style="fill:#322c2c;fill-opacity:1;stroke:#322c2c;stroke-width:2.7050221;stroke-linecap:butt;stroke-linejoin:round;stroke-miterlimit:4;stroke-dasharray:none;stroke-opacity:1" />
      <path
         sodipodi:nodetypes="ccccc"
         inkscape:connector-curvature="0"
         id="path838"
         d="m 353.028,598.93048 h 14.25577 l 8.46111,14.01583 -12.10794,0.23994 z"
         style="fill:#322c2c;fill-opacity:1;stroke:#322c2c;stroke-width:2.7050221;stroke-linecap:butt;stroke-linejoin:round;stroke-miterlimit:4;stroke-dasharray:none;stroke-opacity:1" />
      <path
         sodipodi:nodetypes="cccccc"
         inkscape:connector-curvature="0"
         id="path840"
         d="m 378.72154,659.76617 6.79636,6.79636 c -25.13819,14.49521 -50.89516,-8.34962 -41.72512,-29.64753 9.1432,-20.38274 40.73548,-17.77005 50.67644,5.11434 0,0 -24.46168,8.92927 -37.46286,12.92965 5.45223,6.4334 15.35816,7.85 21.71518,4.80718 z"
         style="fill:#322c2c;fill-opacity:1;stroke:#322c2c;stroke-width:2.7050221;stroke-linecap:butt;stroke-linejoin:round;stroke-miterlimit:4;stroke-dasharray:none;stroke-opacity:1" />
      <path
         sodipodi:nodetypes="ccc"
         inkscape:connector-curvature="0"
         id="path842"
         d="m 358.11841,646.32912 20.51235,-7.03281 c -4.87721,-16.9622 -32.76085,-1.96396 -20.51235,7.03281 z"
         style="fill:#ffffff;fill-opacity:1;stroke:#322c2c;stroke-width:2.7050221;stroke-linecap:butt;stroke-linejoin:miter;stroke-miterlimit:4;stroke-dasharray:none;stroke-opacity:1" />
      <path
         sodipodi:nodetypes="cccccc"
         inkscape:connector-curvature="0"
         id="path840-3"
         d="m 547.42288,659.34707 6.79637,6.79637 c -25.13819,14.4952 -50.89517,-8.34963 -41.72513,-29.64753 9.14321,-20.38275 40.73549,-17.77005 50.67644,5.11433 0,0 -24.46168,8.92927 -37.46285,12.92966 5.45223,6.4334 15.35816,7.84999 21.71517,4.80717 z"
         style="fill:#322c2c;fill-opacity:1;stroke:#322c2c;stroke-width:2.7050221;stroke-linecap:butt;stroke-linejoin:round;stroke-miterlimit:4;stroke-dasharray:none;stroke-opacity:1" />
      <path
         sodipodi:nodetypes="ccc"
         inkscape:connector-curvature="0"
         id="path842-5"
         d="m 526.81976,645.91002 20.51235,-7.03281 c -4.87721,-16.96219 -32.76086,-1.96395 -20.51235,7.03281 z"
         style="fill:#ffffff;fill-opacity:1;stroke:#322c2c;stroke-width:2.7050221;stroke-linecap:butt;stroke-linejoin:miter;stroke-miterlimit:4;stroke-dasharray:none;stroke-opacity:1" />
      <path
         sodipodi:nodetypes="cccccc"
         inkscape:connector-curvature="0"
         id="path840-2"
         d="m 863.99566,658.74747 6.79637,6.79637 c -25.1382,14.4952 -50.89517,-8.34963 -41.72513,-29.64753 9.1432,-20.38275 40.73548,-17.77005 50.67644,5.11433 0,0 -24.46168,8.92927 -37.46286,12.92966 5.45223,6.4334 15.35816,7.84999 21.71518,4.80717 z"
         style="fill:#322c2c;fill-opacity:1;stroke:#322c2c;stroke-width:2.7050221;stroke-linecap:butt;stroke-linejoin:round;stroke-miterlimit:4;stroke-dasharray:none;stroke-opacity:1" />
      <path
         sodipodi:nodetypes="ccc"
         inkscape:connector-curvature="0"
         id="path842-8"
         d="m 843.39253,645.31042 20.51235,-7.03281 c -4.87721,-16.96219 -32.76085,-1.96395 -20.51235,7.03281 z"
         style="fill:#ffffff;fill-opacity:1;stroke:#322c2c;stroke-width:2.7050221;stroke-linecap:butt;stroke-linejoin:miter;stroke-miterlimit:4;stroke-dasharray:none;stroke-opacity:1" />
      <path
         sodipodi:nodetypes="cccccc"
         inkscape:connector-curvature="0"
         id="path840-1"
         d="m 1017.3108,658.74747 6.7964,6.79637 c -25.13818,14.4952 -50.89516,-8.34963 -41.72512,-29.64753 9.14321,-20.38275 40.73552,-17.77005 50.67642,5.11433 0,0 -24.4617,8.92927 -37.46283,12.92966 5.45223,6.4334 15.35813,7.84999 21.71513,4.80717 z"
         style="fill:#322c2c;fill-opacity:1;stroke:#322c2c;stroke-width:2.7050221;stroke-linecap:butt;stroke-linejoin:round;stroke-miterlimit:4;stroke-dasharray:none;stroke-opacity:1" />
      <path
         sodipodi:nodetypes="ccc"
         inkscape:connector-curvature="0"
         id="path842-6"
         d="m 996.70772,645.31042 20.51238,-7.03281 c -4.8772,-16.96219 -32.76088,-1.96395 -20.51238,7.03281 z"
         style="fill:#ffffff;fill-opacity:1;stroke:#322c2c;stroke-width:2.7050221;stroke-linecap:butt;stroke-linejoin:miter;stroke-miterlimit:4;stroke-dasharray:none;stroke-opacity:1" />
      <path
         sodipodi:nodetypes="cccccccc"
         inkscape:connector-curvature="0"
         id="path924"
         d="m 401.95623,622.4176 h 17.34759 l 12.1902,23.20825 9.84593,-23.20825 h 17.58201 l -26.78326,46.88539 c -1.47365,1.9844 -2.21642,2.07895 -3.75085,0 z"
         style="fill:#322c2c;fill-opacity:1;stroke:#322c2c;stroke-width:2.7050221;stroke-linecap:butt;stroke-linejoin:round;stroke-miterlimit:4;stroke-dasharray:none;stroke-opacity:1" />
      <path
         sodipodi:nodetypes="ccccccccc"
         inkscape:connector-curvature="0"
         id="path926"
         d="m 469.11954,622.06595 h 14.30004 v 11.95579 c 5.8366,-7.65804 10.16065,-11.01788 19.22301,-12.77628 v 12.42463 c -7.43667,-0.22019 -13.02571,3.96376 -19.10579,11.36969 v 24.96646 h -14.41726 z"
         style="fill:#322c2c;fill-opacity:1;stroke:#322c2c;stroke-width:2.7050221;stroke-linecap:butt;stroke-linejoin:round;stroke-miterlimit:4;stroke-dasharray:none;stroke-opacity:1" />
      <path
         sodipodi:nodetypes="ccccccccc"
         inkscape:connector-curvature="0"
         id="path926-2"
         d="m 702.04804,625.25592 h 12.79681 v 10.69902 c 5.22307,-6.85304 9.09254,-9.85971 17.20228,-11.43328 v 11.11857 c -6.65492,-0.19693 -11.65645,3.54713 -17.09739,10.17454 v 22.34199 h -12.9017 z"
         style="display:inline;fill:#322c2c;fill-opacity:1;stroke:#322c2c;stroke-width:2.7050221;stroke-linecap:butt;stroke-linejoin:round;stroke-miterlimit:4;stroke-dasharray:none;stroke-opacity:1" />
      <path
         sodipodi:nodetypes="ccsccccccsccc"
         inkscape:connector-curvature="0"
         id="path943"
         d="m 679.0894,594.15008 c -100.07781,-32.19393 -83.18781,116.43134 3.96459,67.79952 0.29285,-0.20531 0.51855,-0.45998 0.69759,-0.74872 0.3699,-0.59662 0.54047,-1.33914 0.6922,-2.0955 l -0.21777,-30.83447 h -31.82682 v 15.08458 h 15.41611 v 9.78014 c -19.16611,5.99655 -32.90832,-0.10767 -38.06834,-11.2986 -4.02353,-8.72622 -3.32624,-24.35784 5.08117,-32.13175 9.27089,-8.40284 24.84886,-7.30712 36.96553,-3.48112 z"
         style="fill:#322c2c;fill-opacity:1;stroke:#322c2c;stroke-width:2.7050221;stroke-linecap:butt;stroke-linejoin:round;stroke-miterlimit:4;stroke-dasharray:none;stroke-opacity:1" />
      <g
         transform="matrix(2.7050222,0,0,2.7050222,-959.82951,-780.15841)"
         id="g974"
         style="fill:#322c2c;fill-opacity:1;stroke:#322c2c;stroke-width:1;stroke-miterlimit:4;stroke-dasharray:none;stroke-opacity:1">
        <rect
           style="fill:#322c2c;fill-opacity:1;stroke:#322c2c;stroke-width:1;stroke-linecap:round;stroke-linejoin:round;stroke-miterlimit:4;stroke-dasharray:none;stroke-dashoffset:0;stroke-opacity:1"
           id="rect947"
           width="5.5464683"
           height="17.332714"
           x="630.99744"
           y="518.68146" />
        <path
           style="fill:#322c2c;fill-opacity:1;stroke:#322c2c;stroke-width:1;stroke-linecap:butt;stroke-linejoin:round;stroke-miterlimit:4;stroke-dasharray:none;stroke-opacity:1"
           d="m 631.77742,514.13162 c -2.2164,-1.67576 0.086,-4.33941 2.3411,-4.56763 2.92774,0.0182 3.61058,3.75954 1.86211,4.5243 -1.27641,0.5863 -3.14725,0.6244 -4.20321,0.0433 z"
           id="path951"
           inkscape:connector-curvature="0"
           sodipodi:nodetypes="ccccc" />
      </g>
      <path
         sodipodi:nodetypes="ccccccccccccccc"
         inkscape:connector-curvature="0"
         id="path953"
         d="m 807.55519,632.24921 4.80717,-5.30449 c -3.78866,-6.62475 -12.19617,-7.75706 -17.07377,-7.62516 -5.27742,0.1242 -10.9863,2.75802 -13.59271,4.80717 -4.11415,2.83495 -6.41871,6.09409 -6.13333,11.272 0.51399,5.62882 3.15081,8.95257 7.29367,11.76931 5.20885,3.02162 10.83345,5.08197 16.41072,7.29365 4.63557,2.47058 4.27492,8.116 -1.49187,8.78554 -6.97609,0.3061 -11.1942,-3.30089 -15.74766,-7.29371 l -6.13333,7.45943 c 6.74512,9.61448 19.21367,11.13882 28.01428,9.28276 12.13171,-3.20767 14.11425,-23.85759 3.14958,-29.50615 -4.16003,-2.37667 -8.67065,-3.99907 -13.09541,-5.80176 -6.34217,-3.30542 -0.65413,-8.44632 1.49187,-9.11704 3.37766,-0.959 8.96304,0.833 12.10079,3.97845 z"
         style="fill:#322c2c;fill-opacity:1;stroke:#322c2c;stroke-width:2.7050221;stroke-linecap:butt;stroke-linejoin:round;stroke-miterlimit:4;stroke-dasharray:none;stroke-opacity:1" />
      <path
         inkscape:connector-curvature="0"
         id="path955"
         d="m 899.05737,600.25659 h 14.5873 v 21.54942 h 10.60895 v 10.60898 h -10.60895 v 36.79979 h -14.5873 v -37.13132 h -8.9513 v -9.61439 h 8.61977 z"
         style="fill:#322c2c;fill-opacity:1;stroke:#322c2c;stroke-width:2.7050221;stroke-linecap:butt;stroke-linejoin:round;stroke-miterlimit:4;stroke-dasharray:none;stroke-opacity:1" />
      <path
         inkscape:connector-curvature="0"
         id="path955-5"
         d="m 943.6481,600.91965 h 14.58728 v 21.54942 h 10.60897 v 10.60897 h -10.60897 v 36.7998 H 943.6481 v -37.13133 h -8.9513 v -9.61438 h 8.61977 z"
         style="display:inline;fill:#322c2c;fill-opacity:1;stroke:#322c2c;stroke-width:2.7050221;stroke-linecap:butt;stroke-linejoin:round;stroke-miterlimit:4;stroke-dasharray:none;stroke-opacity:1" />
    </g>
  </g>
  <g
     inkscape:groupmode="layer"
     id="layer5"
     inkscape:label="tête"
     style="display:inline">
    <path
       style="display:inline;fill:none;stroke:#322c2c;stroke-width:6.04988241;stroke-linecap:round;stroke-linejoin:round;stroke-miterlimit:4;stroke-dasharray:none;stroke-opacity:1"
       d="m 463.57306,321.08754 c 16.65188,99.35593 38.89752,183.51647 107.22871,228.32609 4.40656,2.13445 11.09623,7.97837 18.97014,3.12295 63.4182,-44.3787 66.55611,-164.63689 64.5803,-232.80208"
       id="path871-6"
       inkscape:connector-curvature="0"
       sodipodi:nodetypes="cccc" />
    <path
       style="display:inline;fill:none;stroke:#000000;stroke-width:6.04988241;stroke-linecap:round;stroke-linejoin:miter;stroke-miterlimit:4;stroke-dasharray:none;stroke-opacity:1"
       d="m 548.9656,512.88102 c 5.42155,4.61838 10.84313,8.48009 16.26468,10.40464"
       id="path873-2"
       inkscape:connector-curvature="0"
       sodipodi:nodetypes="cc" />
    <path
       style="display:inline;fill:none;stroke:#000000;stroke-width:6.04988241;stroke-linecap:round;stroke-linejoin:miter;stroke-miterlimit:4;stroke-dasharray:none;stroke-opacity:1"
       d="m 600.62991,509.41284 c -3.28425,5.28661 -7.58931,9.55239 -12.6769,13.03567"
       id="path875-6"
       inkscape:connector-curvature="0"
       sodipodi:nodetypes="cc" />
    <path
       style="display:inline;fill:none;stroke:#322c2c;stroke-width:6.04988241;stroke-linecap:round;stroke-linejoin:round;stroke-miterlimit:4;stroke-dasharray:none;stroke-opacity:1"
       d="m 481.16262,310.60145 c -17.02986,7.61318 -32.9822,17.51714 -55.81305,21.98696 -42.93818,7.20152 -90.93637,5.69653 -120.75913,-1.6913 -15.35363,-5.31906 -10.66855,-10.61068 -3.04435,-15.89827 26.28197,-16.42761 44.5125,-28.08522 73.4026,-32.8113 23.8699,-4.87851 42.88629,-4.27034 66.97566,-2.70609 7.70193,0.8741 14.26577,3.73254 21.31043,6.76522 l 17.45798,-12.40457"
       id="path890-4"
       inkscape:connector-curvature="0"
       sodipodi:nodetypes="cccccccc" />
    <path
       style="display:inline;fill:none;stroke:#322c2c;stroke-width:6.04988241;stroke-linecap:round;stroke-linejoin:round;stroke-miterlimit:4;stroke-dasharray:none;stroke-opacity:1"
       d="m 607.44672,257.07099 c 13.06356,9.22581 11.01332,8.06524 20.33086,16.2647 15.59173,-1.86816 29.80696,-0.75412 45.44544,-2.1527 44.09675,-4.46612 78.20814,9.5091 105.95964,28.22405 6.43315,5.3429 8.40253,10.50744 -2.15264,14.59036 -28.37315,12.2311 -62.69649,10.246 -88.97743,10.04584 -19.10656,-2.08987 -56.31931,-5.60611 -60.27501,-17.93899"
       id="path892-7"
       inkscape:connector-curvature="0"
       sodipodi:nodetypes="ccccccc" />
    <path
       style="display:inline;fill:none;stroke:#322c2c;stroke-width:6.04988241;stroke-linecap:round;stroke-linejoin:round;stroke-miterlimit:4;stroke-dasharray:none;stroke-opacity:1"
       d="m 520.31774,251.06234 c 15.54711,-7.25973 29.24583,-4.14183 44.79295,-3.31961"
       id="path894-3"
       inkscape:connector-curvature="0"
       sodipodi:nodetypes="cc" />
  </g>
  <g
     inkscape:groupmode="layer"
     id="layer7"
     inkscape:label="couleur tête "
     style="display:inline">
    <path
       style="fill:none;stroke:#474747;stroke-width:1px;stroke-linecap:butt;stroke-linejoin:miter;stroke-opacity:1"
       d="m 471.64022,281.43084 c 118.85704,64.60388 69.07403,219.52335 4.24264,103.23759"
       id="path865"
       inkscape:connector-curvature="0"
       sodipodi:nodetypes="cc" />
    <path
       style="display:inline;fill:none;stroke:#474747;stroke-width:1px;stroke-linecap:butt;stroke-linejoin:miter;stroke-opacity:1"
       d="m 617.97887,267.23366 c -67.61745,95.11659 -11.38582,239.0015 35.35534,98.99494"
       id="path867"
       inkscape:connector-curvature="0"
       sodipodi:nodetypes="cc" />
    <path
       style="opacity:1;fill:#322c2c;fill-opacity:1;stroke:#322c2c;stroke-width:2.20000005;stroke-linecap:round;stroke-linejoin:round;stroke-miterlimit:4;stroke-dasharray:none;stroke-dashoffset:0;stroke-opacity:1"
       d="m 510.40867,422.78066 c -7.55353,-3.8131 -16.66733,-12.64762 -23.99686,-23.26149 -5.05395,-7.31863 -5.44847,-8.37217 -8.77706,-23.43916 -3.85331,-17.44213 -10.75469,-54.30465 -10.25142,-54.75621 0.17616,-0.15806 4.0328,-2.14472 8.5703,-4.41479 6.86897,-3.43649 8.25,-4.52612 8.25,-6.50926 0,-1.31001 -0.72121,-2.6586 -1.60268,-2.99685 -0.94295,-0.36185 -8.15194,2.48879 -17.51282,6.92506 -33.01812,15.64779 -50.00712,18.91869 -97.8845,18.8457 -20.54417,-0.0313 -31.57067,-0.48664 -39.5,-1.63109 -15.43462,-2.22768 -25.0859,-4.57812 -27.7336,-6.75415 -2.26618,-1.86247 -2.26621,-1.86285 -0.2664,-3.85356 7.41407,-7.38035 45.58389,-27.52512 59.89556,-31.61091 20.09797,-5.73768 30.96825,-7.02751 58.10444,-6.89446 26.46653,0.12976 28.23608,0.39418 43.10661,6.44135 2.89028,1.17534 3.43238,1.02935 7.78521,-2.09661 l 4.6786,-3.35992 3.21479,1.85308 c 14.63817,8.4378 32.05611,23.85915 42.29218,37.44433 7.84962,10.4179 16.43394,27.40859 20.00344,39.59221 3.21712,10.98088 4.449,31.25526 2.45177,40.35158 -1.80709,8.23033 -6.71354,16.9089 -11.26075,19.9181 -6.02784,3.98904 -11.95078,4.05171 -19.56681,0.20705 z"
       id="path906"
       inkscape:connector-curvature="0" />
    <path
       style="opacity:1;fill:#322c2c;fill-opacity:1;stroke:#322c2c;stroke-width:2.20000005;stroke-linecap:round;stroke-linejoin:round;stroke-miterlimit:4;stroke-dasharray:none;stroke-dashoffset:0;stroke-opacity:1"
       d="m 607.44869,422.31099 c -9.84861,-4.2804 -17.14533,-21.22364 -19.06758,-44.27557 -2.22057,-26.62939 3.48665,-58.3027 14.99658,-83.22638 4.23934,-9.1799 12.44603,-23.65228 13.93354,-24.57162 0.50493,-0.31206 2.77666,1.02352 5.0483,2.96796 l 4.13026,3.53535 11.10692,-0.48533 c 6.1088,-0.26693 20.7094,-0.98635 32.44577,-1.59871 29.61574,-1.54524 43.71529,-0.15421 64.16115,6.33 15.88411,5.0375 41.11903,18.35522 45.96757,24.25938 1.3136,1.5996 1.2383,1.97274 -0.71782,3.5567 -2.44291,1.97815 -18.79893,7.34254 -27.24975,8.93728 -19.01979,3.58918 -55.07145,4.08502 -78.21176,1.07568 -26.00033,-3.38128 -40.02992,-7.85729 -42.64965,-13.60697 -1.17659,-2.58234 -3.99025,-3.15318 -5.93859,-1.20483 -1.88052,1.88051 -1.44858,3.44729 2.04833,7.43006 3.46456,3.94591 9.96858,7.25675 18.50167,9.4182 l 5.25,1.32984 v 23.84865 23.84865 l -3.37511,8.73925 c -9.03658,23.39869 -20.10193,39.5786 -29.84277,43.63652 -4.51617,1.88138 -6.31489,1.89092 -10.53706,0.0559 z"
       id="path908"
       inkscape:connector-curvature="0" />
    <path
       style="opacity:1;fill:#474747;fill-opacity:1;stroke:#474747;stroke-width:0.77781749;stroke-linecap:round;stroke-linejoin:round;stroke-miterlimit:4;stroke-dasharray:none;stroke-dashoffset:0;stroke-opacity:1"
       d="m 364.55985,334.24059 c 1.21534,-0.069 3.20408,-0.069 4.41942,0 1.21534,0.069 0.22097,0.12552 -2.20971,0.12552 -2.43068,0 -3.42505,-0.0565 -2.20971,-0.12552 z"
       id="path910"
       inkscape:connector-curvature="0" />
    <path
       style="opacity:1;fill:#322c2c;fill-opacity:1;stroke:none;stroke-width:0.19445437;stroke-linecap:round;stroke-linejoin:round;stroke-miterlimit:4;stroke-dasharray:none;stroke-dashoffset:0;stroke-opacity:1"
       d="m 361.07489,340.2132 c -18.71516,-0.29024 -37.32275,-2.14002 -51.45558,-5.11521 -1.02835,-0.21648 -1.89358,-0.39361 -1.92273,-0.39361 -0.0291,0 -0.0429,-6.08911 -0.0306,-13.53137 l 0.0224,-13.53137 2.87262,-1.77083 c 12.6573,-7.80262 21.44272,-12.64347 29.54852,-16.28151 l 2.28072,-1.02363 h 46.66433 46.66433 v 22.30753 22.30754 l -0.99437,0.27691 c -4.29274,1.19544 -8.08776,1.98302 -13.6339,2.82946 -18.78504,2.86693 -39.77426,4.24 -60.01569,3.92609 z m 1.12695,-6.0162 c -0.30383,-0.0173 -0.80102,-0.0173 -1.10485,0 -0.30383,0.0173 -0.0552,0.0314 0.55243,0.0314 0.60767,0 0.85626,-0.0141 0.55242,-0.0314 z"
       id="path912"
       inkscape:connector-curvature="0" />
    <ellipse
       style="opacity:1;fill:#ffffff;fill-opacity:1;stroke:#ffffff;stroke-width:2.834162;stroke-linecap:round;stroke-linejoin:round;stroke-miterlimit:4;stroke-dasharray:none;stroke-dashoffset:0;stroke-opacity:1"
       id="path914"
       cx="518.66284"
       cy="399.87122"
       rx="11.350182"
       ry="11.350181" />
    <ellipse
       style="display:inline;opacity:1;fill:#ffffff;fill-opacity:1;stroke:#ffffff;stroke-width:2.834162;stroke-linecap:round;stroke-linejoin:round;stroke-miterlimit:4;stroke-dasharray:none;stroke-dashoffset:0;stroke-opacity:1"
       id="path914-2"
       cx="615.89001"
       cy="393.86081"
       rx="11.350182"
       ry="11.350181" />
    <ellipse
       style="display:inline;opacity:1;fill:#000000;fill-opacity:1;stroke:#000000;stroke-width:3.70150495;stroke-linecap:round;stroke-linejoin:round;stroke-miterlimit:4;stroke-dasharray:none;stroke-dashoffset:0;stroke-opacity:1"
       id="path931-8-9"
       transform="matrix(0.95203304,0.30599525,-0.22813227,0.97363015,0,0)"
       ry="6.4015045"
       rx="6.9398375"
       cy="224.07861"
       cx="598.65143" />
    <ellipse
       style="opacity:1;fill:#ffffff;fill-opacity:1;stroke:none;stroke-width:8.67403793;stroke-linecap:round;stroke-linejoin:round;stroke-miterlimit:4;stroke-dasharray:none;stroke-dashoffset:0;stroke-opacity:1"
       id="path1079"
       cx="513.26398"
       cy="397.6857"
       rx="1.7882936"
       ry="1.971352" />
    <ellipse
       style="display:inline;opacity:1;fill:#000000;fill-opacity:1;stroke:#000000;stroke-width:3.70150495;stroke-linecap:round;stroke-linejoin:round;stroke-miterlimit:4;stroke-dasharray:none;stroke-dashoffset:0;stroke-opacity:1"
       id="path931-8-9-8"
       transform="matrix(-0.05393686,0.99854435,-0.99963925,0.02685844,0,0)"
       ry="6.4015045"
       rx="6.9398375"
       cy="-639.0484"
       cx="411.97794" />
    <ellipse
       style="display:inline;opacity:1;fill:#ffffff;fill-opacity:1;stroke:none;stroke-width:8.67403793;stroke-linecap:round;stroke-linejoin:round;stroke-miterlimit:4;stroke-dasharray:none;stroke-dashoffset:0;stroke-opacity:1"
       id="path1079-2"
       cx="611.87866"
       cy="390.82843"
       rx="1.7882936"
       ry="1.971352" />
  </g>
  <g
     inkscape:groupmode="layer"
     id="layer8"
     inkscape:label="cornes couleur marron"
     style="display:none"
     sodipodi:insensitive="true">
    <path
       style="display:inline;fill:#803300;fill-opacity:1;stroke:#803300;stroke-width:6.63628817;stroke-linecap:round;stroke-linejoin:round;stroke-miterlimit:4;stroke-dasharray:none;stroke-opacity:1"
       d="M 482.51568,281.17256 C 462.24885,203.25267 424.95106,122.23874 399.67774,98.06111 392.30858,91.546 386.3152,85.17343 377.71043,82.28323 363.8304,78.82122 330.98839,70.94481 375.08562,72.50615 c 1.55391,0.055 5.32706,0.60721 5.32706,0.60721 52.24744,10.6915 126.58209,142.78243 146.20826,194.16857 -6.31969,16.90159 -21.32083,21.00441 -44.10525,13.89042 z"
       id="path965-34"
       inkscape:connector-curvature="0"
       sodipodi:nodetypes="cccsccc" />
    <path
       style="display:inline;fill:#803300;fill-opacity:1;stroke:#803300;stroke-width:6.113204;stroke-linecap:round;stroke-linejoin:round;stroke-miterlimit:4;stroke-dasharray:none;stroke-opacity:1"
       d="m 606.79023,268.72797 c -0.8327,-75.4194 12.48301,-157.82765 28.81706,-185.90253 4.88987,-7.70284 8.61127,-14.93819 15.44384,-19.66871 11.30693,-6.5458 38.13575,-21.7493 -0.0329,-9.48343 -1.345,0.43225 -4.51128,1.86011 -4.51128,1.86011 -43.11878,22.52467 -76.64738,160.21738 -81.57003,211.49559 9.54604,13.72151 23.63331,13.73742 41.8534,1.69878 z"
       id="path965-3-8"
       inkscape:connector-curvature="0"
       sodipodi:nodetypes="cccsccc" />
  </g>
  <g
     inkscape:groupmode="layer"
     id="layer11"
     inkscape:label="cornes trait"
     style="display:inline">
    <path
       style="display:inline;fill:none;fill-opacity:1;stroke:#322c2c;stroke-width:6.63600016;stroke-linecap:round;stroke-linejoin:round;stroke-miterlimit:4;stroke-dasharray:none;stroke-opacity:1"
       d="M 482.51569,281.17235 C 462.24886,203.25246 424.95107,122.23853 399.67775,98.06089 c -7.36916,-6.5151 -13.36254,-12.887667 -21.96731,-15.777877 -13.88003,-3.462 -46.72204,-11.33842 -2.62481,-9.77708 1.55391,0.055 5.32706,0.60722 5.32706,0.60722 52.24744,10.6915 126.58209,142.782427 146.20826,194.168567 -6.31969,16.90159 -21.32083,21.00441 -44.10525,13.89042 z"
       id="path965-0"
       inkscape:connector-curvature="0"
       sodipodi:nodetypes="cccsccc" />
    <path
       style="display:inline;fill:none;fill-opacity:1;stroke:#322c2c;stroke-width:6.113204;stroke-linecap:round;stroke-linejoin:round;stroke-miterlimit:4;stroke-dasharray:none;stroke-opacity:1"
       d="m 606.79024,268.72776 c -0.8327,-75.4194 12.48301,-157.82765 28.81706,-185.902527 4.88987,-7.70285 8.61127,-14.9382 15.44384,-19.66871 11.30693,-6.5458 38.13575,-21.7493 -0.0329,-9.48343 -1.345,0.43224 -4.51128,1.86011 -4.51128,1.86011 -43.11878,22.52467 -76.64738,160.217377 -81.57003,211.495587 9.54604,13.72151 23.63331,13.73742 41.8534,1.69878 z"
       id="path965-3-5"
       inkscape:connector-curvature="0"
       sodipodi:nodetypes="cccsccc" />
    <path
       style="fill:none;stroke:#322c2c;stroke-width:4.9000001;stroke-linecap:butt;stroke-linejoin:miter;stroke-miterlimit:4;stroke-dasharray:none;stroke-opacity:1"
       d="m 514,240.5 c -11.81792,10.58478 -25.01549,13.58148 -39.5,9.5"
       id="path897"
       inkscape:connector-curvature="0"
       sodipodi:nodetypes="cc" />
    <path
       style="fill:none;stroke:#322c2c;stroke-width:4.9000001;stroke-linecap:butt;stroke-linejoin:miter;stroke-miterlimit:4;stroke-dasharray:none;stroke-opacity:1"
       d="m 508.26496,224.57848 c -5.55691,8.79592 -22.24166,12.78896 -39.5,9.5"
       id="path897-1"
       inkscape:connector-curvature="0"
       sodipodi:nodetypes="cc" />
    <path
       style="fill:none;stroke:#322c2c;stroke-width:4.9000001;stroke-linecap:butt;stroke-linejoin:miter;stroke-miterlimit:4;stroke-dasharray:none;stroke-opacity:1"
       d="m 500.26496,206.57848 c -11.81792,10.58478 -25.01549,13.58148 -39.5,9.5"
       id="path897-9"
       inkscape:connector-curvature="0"
       sodipodi:nodetypes="cc" />
    <path
       style="fill:none;stroke:#322c2c;stroke-width:4.9000001;stroke-linecap:butt;stroke-linejoin:miter;stroke-miterlimit:4;stroke-dasharray:none;stroke-opacity:1"
       d="m 487.01496,189.07848 c -6.55012,9.07969 -12.73493,12.92989 -31.25,10"
       id="path897-14"
       inkscape:connector-curvature="0"
       sodipodi:nodetypes="cc" />
    <path
       style="fill:none;stroke:#322c2c;stroke-width:4.9000001;stroke-linecap:butt;stroke-linejoin:miter;stroke-miterlimit:4;stroke-dasharray:none;stroke-opacity:1"
       d="m 477.98622,170.75222 c -5.39998,9.8074 -11.0719,14.37963 -29.80567,13.71803"
       id="path897-14-8"
       inkscape:connector-curvature="0"
       sodipodi:nodetypes="cc" />
    <path
       style="fill:none;stroke:#322c2c;stroke-width:4.9000001;stroke-linecap:butt;stroke-linejoin:miter;stroke-miterlimit:4;stroke-dasharray:none;stroke-opacity:1"
       d="m 469.573,158.00658 c -6.55012,7.23108 -8.23493,10.79433 -26.75,11.25"
       id="path897-14-3"
       inkscape:connector-curvature="0"
       sodipodi:nodetypes="cc" />
    <path
       style="fill:none;stroke:#322c2c;stroke-width:4.9000001;stroke-linecap:butt;stroke-linejoin:miter;stroke-miterlimit:4;stroke-dasharray:none;stroke-opacity:1"
       d="m 459.323,144.50658 c -2.34791,4.37039 -7.06937,11.91781 -23.75,10"
       id="path897-14-0"
       inkscape:connector-curvature="0"
       sodipodi:nodetypes="cc" />
    <path
       style="fill:none;stroke:#322c2c;stroke-width:4.9000001;stroke-linecap:butt;stroke-linejoin:miter;stroke-miterlimit:4;stroke-dasharray:none;stroke-opacity:1"
       d="m 448.073,130.75658 c -5.04925,6.98769 -11.62472,8.34282 -20.75,6.75"
       id="path897-14-6"
       inkscape:connector-curvature="0"
       sodipodi:nodetypes="cc" />
    <path
       style="fill:none;stroke:#322c2c;stroke-width:4.9000001;stroke-linecap:butt;stroke-linejoin:miter;stroke-miterlimit:4;stroke-dasharray:none;stroke-opacity:1"
       d="m 438.05727,114.75664 c -4.22555,7.51448 -10.60529,9.60545 -19.85224,9.05614"
       id="path897-14-6-2"
       inkscape:connector-curvature="0"
       sodipodi:nodetypes="cc" />
    <path
       style="fill:none;stroke:#322c2c;stroke-width:4.9000001;stroke-linecap:butt;stroke-linejoin:miter;stroke-miterlimit:4;stroke-dasharray:none;stroke-opacity:1"
       d="m 425.195,100.74317 c -3.56001,7.85169 -6.86007,8.61143 -16.11988,8.86369"
       id="path897-14-6-5"
       inkscape:connector-curvature="0"
       sodipodi:nodetypes="cc" />
    <path
       style="fill:none;stroke:#322c2c;stroke-width:4.9000001;stroke-linecap:butt;stroke-linejoin:miter;stroke-miterlimit:4;stroke-dasharray:none;stroke-opacity:1"
       d="m 415.72762,91.724463 c -3.56001,7.851687 -5.36007,8.236427 -14.61988,8.488687"
       id="path897-14-6-5-0"
       inkscape:connector-curvature="0"
       sodipodi:nodetypes="cc" />
    <path
       style="fill:none;stroke:#322c2c;stroke-width:4.9000001;stroke-linecap:butt;stroke-linejoin:miter;stroke-miterlimit:4;stroke-dasharray:none;stroke-opacity:1"
       d="m 402.85262,82.474463 c -2.12295,4.56585 -3.84594,7.40118 -10.86988,7.48869"
       id="path897-14-6-5-4"
       inkscape:connector-curvature="0"
       sodipodi:nodetypes="cc" />
    <path
       style="fill:none;stroke:#322c2c;stroke-width:4.9000001;stroke-linecap:butt;stroke-linejoin:miter;stroke-miterlimit:4;stroke-dasharray:none;stroke-opacity:1"
       d="m 568.55796,240.45252 c 13.91671,7.61747 24.69996,7.15701 37.87551,-0.11379"
       id="path897-6"
       inkscape:connector-curvature="0"
       sodipodi:nodetypes="cc" />
    <path
       style="fill:none;stroke:#322c2c;stroke-width:4.9000001;stroke-linecap:butt;stroke-linejoin:miter;stroke-miterlimit:4;stroke-dasharray:none;stroke-opacity:1"
       d="m 570.76905,223.9561 c 7.41288,7.30046 29.63105,6.57906 37.6255,-0.42629"
       id="path897-1-7"
       inkscape:connector-curvature="0"
       sodipodi:nodetypes="cc" />
    <path
       style="fill:none;stroke:#322c2c;stroke-width:4.9000001;stroke-linecap:butt;stroke-linejoin:miter;stroke-miterlimit:4;stroke-dasharray:none;stroke-opacity:1"
       d="m 575.58763,205.42029 c 13.91672,7.61747 24.19997,5.907 33.25051,1.5112"
       id="path897-9-6"
       inkscape:connector-curvature="0"
       sodipodi:nodetypes="cc" />
    <path
       style="fill:none;stroke:#322c2c;stroke-width:4.9000001;stroke-linecap:butt;stroke-linejoin:miter;stroke-miterlimit:4;stroke-dasharray:none;stroke-opacity:1"
       d="m 580.38225,183.86405 c 8.44461,7.35073 19.96836,10.69235 31.33078,2.87564"
       id="path897-14-4"
       inkscape:connector-curvature="0"
       sodipodi:nodetypes="cc" />
    <path
       style="fill:none;stroke:#322c2c;stroke-width:4.9000001;stroke-linecap:butt;stroke-linejoin:miter;stroke-miterlimit:4;stroke-dasharray:none;stroke-opacity:1"
       d="m 585.00332,163.96391 c 7.49027,8.3211 15.30392,10.35752 28.39552,6.8248"
       id="path897-14-8-8"
       inkscape:connector-curvature="0"
       sodipodi:nodetypes="cc" />
    <path
       style="fill:none;stroke:#322c2c;stroke-width:4.9000001;stroke-linecap:butt;stroke-linejoin:miter;stroke-miterlimit:4;stroke-dasharray:none;stroke-opacity:1"
       d="m 590.29509,149.63803 c 8.02391,5.55063 11.44419,7.85569 26.98335,5.05445"
       id="path897-14-3-9"
       inkscape:connector-curvature="0"
       sodipodi:nodetypes="cc" />
    <path
       style="fill:none;stroke:#322c2c;stroke-width:4.9000001;stroke-linecap:butt;stroke-linejoin:miter;stroke-miterlimit:4;stroke-dasharray:none;stroke-opacity:1"
       d="m 597.20375,134.15956 c 3.28093,3.72136 12.33619,8.67038 21.73448,4.95123"
       id="path897-14-0-5"
       inkscape:connector-curvature="0"
       sodipodi:nodetypes="cc" />
    <path
       style="fill:none;stroke:#322c2c;stroke-width:4.9000001;stroke-linecap:butt;stroke-linejoin:miter;stroke-miterlimit:4;stroke-dasharray:none;stroke-opacity:1"
       d="m 605.02929,118.21007 c 6.50702,5.65521 12.64383,4.19669 16.74773,3.13217"
       id="path897-14-6-1"
       inkscape:connector-curvature="0"
       sodipodi:nodetypes="cc" />
    <path
       style="fill:none;stroke:#322c2c;stroke-width:4.9000001;stroke-linecap:butt;stroke-linejoin:miter;stroke-miterlimit:4;stroke-dasharray:none;stroke-opacity:1"
       d="m 611.14088,100.35059 c 5.82484,6.35563 12.15948,6.10012 15.24933,5.14017"
       id="path897-14-6-2-3"
       inkscape:connector-curvature="0"
       sodipodi:nodetypes="cc" />
    <path
       style="fill:none;stroke:#322c2c;stroke-width:4.9000001;stroke-linecap:butt;stroke-linejoin:miter;stroke-miterlimit:4;stroke-dasharray:none;stroke-opacity:1"
       d="m 620.47641,83.77762 c 5.2535,6.835457 10.93796,6.293895 12.67596,5.316049"
       id="path897-14-6-5-9"
       inkscape:connector-curvature="0"
       sodipodi:nodetypes="cc" />
    <path
       style="fill:none;stroke:#322c2c;stroke-width:4.9000001;stroke-linecap:butt;stroke-linejoin:miter;stroke-miterlimit:4;stroke-dasharray:none;stroke-opacity:1"
       d="m 627.64286,72.840966 c 5.2535,6.835454 8.99423,6.137523 10.9974,5.601619"
       id="path897-14-6-5-0-4"
       inkscape:connector-curvature="0"
       sodipodi:nodetypes="cc" />
    <path
       style="fill:none;stroke:#322c2c;stroke-width:4.9000001;stroke-linecap:butt;stroke-linejoin:miter;stroke-miterlimit:4;stroke-dasharray:none;stroke-opacity:1"
       d="m 638.07487,60.903574 c 3.10635,3.96289 8.05439,5.644195 10.47644,4.755884"
       id="path897-14-6-5-4-8"
       inkscape:connector-curvature="0"
       sodipodi:nodetypes="cc" />
  </g>
  <g
     inkscape:groupmode="layer"
     id="layer9"
     inkscape:label="fleur"
     style="display:inline">
    <path
       style="fill:#ffc1d4;fill-opacity:1;stroke:#ffc1d4;stroke-width:4.93785906;stroke-linecap:butt;stroke-linejoin:miter;stroke-miterlimit:4;stroke-dasharray:none;stroke-opacity:1"
       d="m 625.02076,286.67412 c 53.63862,10.92349 19.50439,-61.84124 -4.50407,-12.38311 4.71678,4.91662 5.62145,8.89792 4.50407,12.38311"
       id="path1281"
       inkscape:connector-curvature="0"
       sodipodi:nodetypes="ccc" />
    <path
       style="fill:#ffc1d4;fill-opacity:1;stroke:#ffc1d4;stroke-width:4.93785906;stroke-linecap:butt;stroke-linejoin:miter;stroke-miterlimit:4;stroke-dasharray:none;stroke-opacity:1"
       d="m 617.35952,288.48852 c 8.32434,46.19665 66.56016,2.33334 8.11209,-5.36535 -1.63941,3.04442 -4.0585,5.16902 -8.11209,5.36535"
       id="path1279"
       inkscape:connector-curvature="0"
       sodipodi:nodetypes="ccc" />
    <path
       style="fill:#ffc1d4;fill-opacity:1;stroke:#ffc1d4;stroke-width:4.93785906;stroke-linecap:butt;stroke-linejoin:miter;stroke-miterlimit:4;stroke-dasharray:none;stroke-opacity:1"
       d="m 608.97544,283.97456 c -43.38828,32.75278 23.70873,58.33428 8.38408,4.51396 -3.5296,0.12254 -6.13642,-1.79808 -8.38408,-4.51396 z"
       id="path1277"
       inkscape:connector-curvature="0"
       sodipodi:nodetypes="ccc" />
    <path
       style="fill:#ffc1d4;fill-opacity:1;stroke:#ffc1d4;stroke-width:4.93785906;stroke-linecap:butt;stroke-linejoin:miter;stroke-miterlimit:4;stroke-dasharray:none;stroke-opacity:1"
       d="m 611.94708,275.58121 c -46.29353,-30.0887 -43.57376,43.7301 -2.55501,11.24534 -1.15778,-3.28741 -2.00837,-5.90245 2.55501,-11.24534 z"
       id="path1275"
       inkscape:connector-curvature="0"
       sodipodi:nodetypes="ccc" />
    <path
       style="fill:#ffc1d4;fill-opacity:1;stroke:#ffc1d4;stroke-width:4.93785906;stroke-linecap:butt;stroke-linejoin:miter;stroke-miterlimit:4;stroke-dasharray:none;stroke-opacity:1"
       d="m 611.80299,278.36123 c -47.1079,-36.40262 24.4924,-43.71065 10.42061,-1.9878 -5.18554,-0.0304 -9.11484,0.95446 -10.42061,1.9878 z"
       id="path1273"
       inkscape:connector-curvature="0"
       sodipodi:nodetypes="ccc" />
    <path
       style="fill:none;stroke:#000000;stroke-width:1px;stroke-linecap:round;stroke-linejoin:miter;stroke-opacity:1"
       d="m 603,257 c 2.46495,3.5329 5.71925,9.1694 6.875,12.375"
       id="path993"
       inkscape:connector-curvature="0"
       sodipodi:nodetypes="cc" />
    <path
       style="fill:none;stroke:#000000;stroke-width:1px;stroke-linecap:round;stroke-linejoin:miter;stroke-opacity:1"
       d="m 611,255 c 1.97294,3.2776 3.85304,8.51591 4.5,12.125"
       id="path996"
       inkscape:connector-curvature="0"
       sodipodi:nodetypes="cc" />
    <path
       style="fill:none;stroke:#000000;stroke-width:1px;stroke-linecap:round;stroke-linejoin:miter;stroke-opacity:1"
       d="M 601.5,278.875 C 593.33433,277.57323 588.3555,277.79859 585,278"
       id="path998"
       inkscape:connector-curvature="0"
       sodipodi:nodetypes="cc" />
    <path
       style="fill:none;stroke:#000000;stroke-width:1px;stroke-linecap:round;stroke-linejoin:miter;stroke-opacity:1"
       d="m 601.625,284.375 c -4.29167,-0.0182 -11.70833,0.67292 -16,2.625"
       id="path1000"
       inkscape:connector-curvature="0"
       sodipodi:nodetypes="cc" />
    <path
       style="fill:none;stroke:#000000;stroke-width:1px;stroke-linecap:butt;stroke-linejoin:miter;stroke-opacity:1"
       d="m 608.25,295.125 c -4.51072,4.75 -6.73741,9.5 -7.25,14.25"
       id="path1002"
       inkscape:connector-curvature="0"
       sodipodi:nodetypes="cc" />
    <path
       style="fill:none;stroke:#000000;stroke-width:1px;stroke-linecap:round;stroke-linejoin:miter;stroke-opacity:1"
       d="m 614.25,298.25 c -1.60062,3.57379 -4.55866,8.82762 -5,14.25"
       id="path1004"
       inkscape:connector-curvature="0"
       sodipodi:nodetypes="cc" />
    <path
       style="fill:none;stroke:#000000;stroke-width:1px;stroke-linecap:round;stroke-linejoin:miter;stroke-opacity:1"
       d="m 626.25,295.625 c 4.51463,1.64418 9.79642,3.78098 13,8.375"
       id="path1006"
       inkscape:connector-curvature="0"
       sodipodi:nodetypes="cc" />
    <path
       style="fill:none;stroke:#000000;stroke-width:1px;stroke-linecap:round;stroke-linejoin:miter;stroke-opacity:1"
       d="m 630.125,291.125 c 6.30045,1.7458 12.57402,5.17092 14.875,7.25"
       id="path1008"
       inkscape:connector-curvature="0"
       sodipodi:nodetypes="cc" />
    <path
       style="fill:none;stroke:#000000;stroke-width:1px;stroke-linecap:round;stroke-linejoin:miter;stroke-opacity:1"
       d="m 627.625,271.625 c 4.13153,-3.44528 8.31244,-6.79179 13.75,-7.625"
       id="path1010"
       inkscape:connector-curvature="0"
       sodipodi:nodetypes="cc" />
    <path
       style="fill:none;stroke:#000000;stroke-width:1px;stroke-linecap:round;stroke-linejoin:miter;stroke-opacity:1"
       d="m 631.625,279 c 4.07361,-2.67639 8.12699,-5.37301 13.5,-6.75"
       id="path1012"
       inkscape:connector-curvature="0"
       sodipodi:nodetypes="cc" />
    <ellipse
       style="opacity:1;fill:#fbfb85;fill-opacity:1;stroke:none;stroke-width:1.82452238;stroke-linecap:round;stroke-linejoin:round;stroke-miterlimit:4;stroke-dasharray:none;stroke-dashoffset:0;stroke-opacity:1"
       id="path1271"
       cx="548.64691"
       cy="396.30667"
       rx="16.398745"
       ry="15.906261"
       transform="matrix(0.98119506,-0.19301878,0.19650206,0.98050341,0,0)" />
  </g>
</svg>
